<svg width="264" height="195" viewBox="0 0 264 195" fill="none" xmlns="http://www.w3.org/2000/svg">
<rect y="56.5859" width="11" height="82" rx="5.5" fill="#D9D9D9"/>
<rect x="42" y="13.5859" width="11" height="125" rx="5.5" fill="#AD85D1"/>
<rect x="84" y="13.5859" width="11" height="125" rx="5.5" fill="#AD85D1"/>
<rect x="126" y="36.5859" width="11" height="102" rx="5.5" fill="#AD85D1"/>
<rect x="168" y="8.58594" width="11" height="130" rx="5.5" fill="#AD85D1"/>
<rect x="210" y="0.585938" width="11" height="138" rx="5.5" fill="#AD85D1"/>
<rect x="252" y="56.5859" width="11" height="82" rx="5.5" fill="#D9D9D9"/>
<circle cx="5.5" cy="148.086" r="5.5" fill="#D9D9D9"/>
<circle cx="47.5" cy="148.086" r="5.5" fill="#D9D9D9"/>
<circle cx="89.5" cy="148.086" r="5.5" fill="#D9D9D9"/>
<circle cx="131.5" cy="148.086" r="5.5" fill="#D9D9D9"/>
<circle cx="173.5" cy="148.086" r="5.5" fill="#D9D9D9"/>
<circle cx="215.5" cy="148.086" r="5.5" fill="#D9D9D9"/>
<circle cx="257.5" cy="148.086" r="5.5" fill="#D9D9D9"/>
<path d="M4.634 178.796C3.91067 178.796 3.25733 178.672 2.674 178.425C2.09533 178.173 1.617 177.816 1.239 177.354C0.865667 176.887 0.623 176.334 0.511 175.695L2.037 175.464C2.191 176.08 2.513 176.561 3.003 176.906C3.493 177.247 4.06467 177.417 4.718 177.417C5.124 177.417 5.49733 177.354 5.838 177.228C6.17867 177.097 6.45167 176.913 6.657 176.675C6.867 176.432 6.972 176.143 6.972 175.807C6.972 175.625 6.93933 175.464 6.874 175.324C6.81333 175.184 6.727 175.063 6.615 174.96C6.50767 174.853 6.37467 174.762 6.216 174.687C6.062 174.608 5.89167 174.54 5.705 174.484L3.122 173.721C2.87 173.646 2.61333 173.551 2.352 173.434C2.09067 173.313 1.85033 173.156 1.631 172.965C1.41633 172.769 1.24133 172.529 1.106 172.244C0.970667 171.955 0.903 171.605 0.903 171.194C0.903 170.573 1.06167 170.048 1.379 169.619C1.701 169.185 2.135 168.858 2.681 168.639C3.227 168.415 3.83833 168.303 4.515 168.303C5.19633 168.312 5.80533 168.434 6.342 168.667C6.88333 168.9 7.33133 169.236 7.686 169.675C8.04533 170.109 8.29267 170.636 8.428 171.257L6.86 171.523C6.79 171.145 6.64067 170.821 6.412 170.55C6.18333 170.275 5.90333 170.065 5.572 169.92C5.24067 169.771 4.88133 169.694 4.494 169.689C4.12067 169.68 3.77767 169.736 3.465 169.857C3.157 169.978 2.90967 170.149 2.723 170.368C2.541 170.587 2.45 170.839 2.45 171.124C2.45 171.404 2.53167 171.63 2.695 171.803C2.85833 171.976 3.059 172.113 3.297 172.216C3.53967 172.314 3.78 172.396 4.018 172.461L5.88 172.986C6.11333 173.051 6.377 173.14 6.671 173.252C6.96967 173.359 7.25667 173.511 7.532 173.707C7.812 173.903 8.043 174.164 8.225 174.491C8.407 174.813 8.498 175.219 8.498 175.709C8.498 176.218 8.39533 176.666 8.19 177.053C7.98467 177.436 7.70233 177.758 7.343 178.019C6.98833 178.276 6.57767 178.469 6.111 178.6C5.64433 178.731 5.152 178.796 4.634 178.796Z" fill="black"/>
<path d="M42.98 178.586V168.506H44.303L47.957 176.087L51.59 168.506H52.927V178.579H51.541V171.684L48.286 178.586H47.621L44.359 171.684V178.586H42.98Z" fill="black"/>
<path d="M89.493 178.586V169.885H86.14V168.506H94.309V169.885H90.956V178.586H89.493Z" fill="black"/>
<path d="M130.115 178.586L127.189 168.506H128.722L130.843 176.129L132.964 168.513L134.504 168.506L136.625 176.129L138.746 168.506H140.286L137.353 178.586H135.897L133.734 171.047L131.571 178.586H130.115Z" fill="black"/>
<path d="M176.493 178.586V169.885H173.14V168.506H181.309V169.885H177.956V178.586H176.493Z" fill="black"/>
<path d="M214.98 178.586V168.506H220.951V169.969H216.443V172.811H220.111V174.281H216.443V178.586H214.98Z" fill="black"/>
<path d="M258.634 178.796C257.911 178.796 257.257 178.672 256.674 178.425C256.095 178.173 255.617 177.816 255.239 177.354C254.866 176.887 254.623 176.334 254.511 175.695L256.037 175.464C256.191 176.08 256.513 176.561 257.003 176.906C257.493 177.247 258.065 177.417 258.718 177.417C259.124 177.417 259.497 177.354 259.838 177.228C260.179 177.097 260.452 176.913 260.657 176.675C260.867 176.432 260.972 176.143 260.972 175.807C260.972 175.625 260.939 175.464 260.874 175.324C260.813 175.184 260.727 175.063 260.615 174.96C260.508 174.853 260.375 174.762 260.216 174.687C260.062 174.608 259.892 174.54 259.705 174.484L257.122 173.721C256.87 173.646 256.613 173.551 256.352 173.434C256.091 173.313 255.85 173.156 255.631 172.965C255.416 172.769 255.241 172.529 255.106 172.244C254.971 171.955 254.903 171.605 254.903 171.194C254.903 170.573 255.062 170.048 255.379 169.619C255.701 169.185 256.135 168.858 256.681 168.639C257.227 168.415 257.838 168.303 258.515 168.303C259.196 168.312 259.805 168.434 260.342 168.667C260.883 168.9 261.331 169.236 261.686 169.675C262.045 170.109 262.293 170.636 262.428 171.257L260.86 171.523C260.79 171.145 260.641 170.821 260.412 170.55C260.183 170.275 259.903 170.065 259.572 169.92C259.241 169.771 258.881 169.694 258.494 169.689C258.121 169.68 257.778 169.736 257.465 169.857C257.157 169.978 256.91 170.149 256.723 170.368C256.541 170.587 256.45 170.839 256.45 171.124C256.45 171.404 256.532 171.63 256.695 171.803C256.858 171.976 257.059 172.113 257.297 172.216C257.54 172.314 257.78 172.396 258.018 172.461L259.88 172.986C260.113 173.051 260.377 173.14 260.671 173.252C260.97 173.359 261.257 173.511 261.532 173.707C261.812 173.903 262.043 174.164 262.225 174.491C262.407 174.813 262.498 175.219 262.498 175.709C262.498 176.218 262.395 176.666 262.19 177.053C261.985 177.436 261.702 177.758 261.343 178.019C260.988 178.276 260.578 178.469 260.111 178.6C259.644 178.731 259.152 178.796 258.634 178.796Z" fill="black"/>
</svg>
