<svg width="59" height="59" viewBox="0 0 59 59" fill="none" xmlns="http://www.w3.org/2000/svg">
<g clip-path="url(#clip0_346_15384)">
<mask id="mask0_346_15384" style="mask-type:luminance" maskUnits="userSpaceOnUse" x="0" y="0" width="59" height="59">
<path d="M58.8281 0.546875H0.828125V58.5469H58.8281V0.546875Z" fill="white"/>
</mask>
<g mask="url(#mask0_346_15384)">
<path d="M52.529 29.5487C52.529 42.0867 42.365 52.2497 29.828 52.2497C17.29 52.2497 7.12695 42.0867 7.12695 29.5487C7.12695 17.0107 17.29 6.84766 29.828 6.84766C42.365 6.84766 52.529 17.0107 52.529 29.5487Z" fill="#FF9900"/>
<path d="M45.2748 29.5476C45.2748 38.0776 38.3598 44.9936 29.8288 44.9936C21.2988 44.9936 14.3828 38.0776 14.3828 29.5476C14.3828 21.0176 21.2988 14.1016 29.8288 14.1016C38.3598 14.1016 45.2748 21.0176 45.2748 29.5476Z" fill="#FF7300"/>
</g>
</g>
<defs>
<clipPath id="clip0_346_15384">
<rect width="58" height="58" fill="white" transform="translate(0.828125 0.546875)"/>
</clipPath>
</defs>
</svg>
