<svg width="12" height="12" viewBox="0 0 12 12" fill="none" xmlns="http://www.w3.org/2000/svg">
<path d="M6 0C2.68961 0 0 2.68961 0 6C0 9.31039 2.68961 12 6 12C9.31039 12 12 9.31039 12 6C12 2.68961 9.31039 0 6 0ZM6 0.585366C8.99371 0.585366 11.4146 3.00629 11.4146 6C11.4146 8.99371 8.99371 11.4146 6 11.4146C3.00629 11.4146 0.585366 8.99371 0.585366 6C0.585366 3.00629 3.00629 0.585366 6 0.585366ZM6 1.7561C5.83822 1.7561 5.70732 1.887 5.70732 2.04878V6C5.70732 6.16178 5.83822 6.29268 6 6.29268H9.65854C9.82032 6.29268 9.95122 6.16178 9.95122 6C9.95122 5.83822 9.82031 5.70732 9.65854 5.70732H6.29268V2.04878C6.29268 1.887 6.16178 1.7561 6 1.7561Z" fill="white"/>
</svg>
