<svg width="59" height="59" viewBox="0 0 59 59" fill="none" xmlns="http://www.w3.org/2000/svg">
<g clip-path="url(#clip0_346_15485)">
<mask id="mask0_346_15485" style="mask-type:luminance" maskUnits="userSpaceOnUse" x="0" y="0" width="59" height="59">
<path d="M58.8281 0.546875H0.828125V58.5469H58.8281V0.546875Z" fill="white"/>
</mask>
<g mask="url(#mask0_346_15485)">
<path d="M38.2397 37.0106C28.1856 33.0686 21.0617 23.5486 20.8537 12.6666C20.8537 11.6386 20.8747 10.6326 20.9787 9.64665C21.0827 8.59865 19.8777 7.90665 19.0887 8.59865C13.7077 13.1906 10.4677 20.2146 11.0497 28.0156C11.8597 38.8766 20.3747 47.8936 31.0937 49.1936C39.6937 50.2206 47.4636 46.4466 52.1586 40.1766C52.7607 39.3806 52.0536 38.2896 51.0777 38.4366C47.0686 39.0656 42.7687 38.8136 38.2397 37.0316V37.0106Z" fill="#AD85D1"/>
<path d="M51.4669 18.9786L46.3899 16.7096L44.2539 11.8386C43.9659 11.1736 42.9989 11.1736 42.7109 11.8386L40.5569 16.7526L35.5769 18.9786C34.9119 19.2726 34.9119 20.2576 35.5769 20.5516L40.5339 22.7656L42.7109 27.7326C42.9989 28.3976 43.9659 28.3976 44.2539 27.7326L46.4129 22.8086L51.4669 20.5516C52.1319 20.2576 52.1319 19.2726 51.4669 18.9786Z" fill="#FFA1CC"/>
</g>
</g>
<defs>
<clipPath id="clip0_346_15485">
<rect width="58" height="58" fill="white" transform="translate(0.828125 0.546875)"/>
</clipPath>
</defs>
</svg>
