<svg width="48" height="48" viewBox="0 0 48 48" fill="none" xmlns="http://www.w3.org/2000/svg">
<rect width="48" height="48" rx="24" fill="#AD85D1"/>
<rect x="0.5" y="0.5" width="47" height="47" rx="23.5" stroke="#B3BAC3" stroke-opacity="0.4"/>
<path d="M23.9997 35.9996C30.6099 35.9996 35.9994 30.6112 35.9994 24.0022C35.9994 22.768 35.8139 21.5475 35.4419 20.3656C35.3361 20.021 34.964 19.8219 34.6056 19.9276C34.261 20.0334 34.0619 20.4054 34.1676 20.7637C34.4999 21.8125 34.6716 22.8999 34.6716 24.0022C34.6716 29.8808 29.8794 34.6721 23.9997 34.6721C18.1199 34.6721 13.3278 29.8808 13.3278 24.0022C13.3278 18.1236 18.1199 13.3324 23.9997 13.3324C25.101 13.3324 26.1898 13.5053 27.2388 13.8363C27.5972 13.942 27.9556 13.7566 28.0751 13.3983C28.1808 13.0537 27.9954 12.6817 27.637 12.5623C26.4561 12.1903 25.2341 12.0049 23.9997 12.0049C17.3895 12.0049 12 17.3933 12 24.0022C12 30.6112 17.3895 35.9996 23.9997 35.9996Z" fill="white"/>
<path d="M25.7119 16.8361C25.7654 16.4778 25.5128 16.1331 25.1544 16.0796C24.7699 16.0261 24.3842 15.9863 23.9859 15.9863C19.5659 15.9863 15.9683 19.5832 15.9683 24.0024C15.9683 28.4216 19.5659 32.0185 23.9859 32.0185C28.406 32.0185 32.0036 28.4216 32.0036 24.0024C32.0036 23.6043 31.9774 23.2323 31.9102 22.8478C31.8567 22.4895 31.512 22.2369 31.1537 22.2905C30.7953 22.344 30.5426 22.6886 30.5962 23.0469C30.6497 23.3654 30.6621 23.6702 30.6621 23.9887C30.6621 27.6776 27.6619 30.6773 23.9723 30.6773C20.2827 30.6773 17.3098 27.6913 17.3098 24.0024C17.3098 20.3135 20.3101 17.3138 23.9997 17.3138C24.3182 17.3138 24.6505 17.34 24.9554 17.3798C25.3274 17.4333 25.6584 17.1944 25.7119 16.8361Z" fill="white"/>
<path d="M23.6811 21.3214C24.0395 21.2816 24.3045 20.9494 24.2647 20.5787C24.2249 20.2066 23.8802 19.9416 23.5218 19.9952C21.491 20.234 19.9641 21.9597 19.9641 24.0026C19.9641 26.2321 21.7697 28.0373 23.9997 28.0373C26.0442 28.0373 27.7565 26.5108 28.0079 24.4803C28.0477 24.122 27.7951 23.7898 27.4242 23.75C27.0522 23.6965 26.7336 23.9627 26.6814 24.3335C26.5221 25.6871 25.3673 26.7222 23.9997 26.7222C22.5126 26.7222 21.2919 25.5017 21.2919 24.015C21.2919 22.6352 22.3135 21.4807 23.6811 21.3214Z" fill="white"/>
<path d="M35.9595 16.0399C35.8662 15.8011 35.6273 15.6281 35.3622 15.6157L32.4951 15.5099L32.3881 12.6422C32.3744 12.3772 32.2152 12.1507 31.9638 12.045C31.7249 11.9517 31.4461 12.0052 31.247 12.1905L27.2389 16.1979C27.1057 16.3311 27.0398 16.5028 27.0398 16.6894L27.1592 19.8744L23.5219 23.5111C23.2568 23.7761 23.2568 24.1879 23.5219 24.4529C23.655 24.586 23.8267 24.652 23.986 24.652C24.1453 24.652 24.3307 24.586 24.4501 24.4529L28.0875 20.8162L31.2732 20.9357H31.2993C31.4723 20.9357 31.644 20.8697 31.7634 20.7366L35.7716 16.7292C35.9857 16.5575 36.0516 16.2788 35.9595 16.0399ZM31.0616 19.6231L28.487 19.5173L28.3812 16.9432L31.1151 14.2098L31.1948 16.1743C31.2084 16.5189 31.4872 16.7976 31.8319 16.8113L33.7968 16.891L31.0616 19.6231Z" fill="white"/>
</svg>
