<svg width="59" height="59" viewBox="0 0 59 59" fill="none" xmlns="http://www.w3.org/2000/svg">
<g clip-path="url(#clip0_346_15400)">
<mask id="mask0_346_15400" style="mask-type:luminance" maskUnits="userSpaceOnUse" x="0" y="0" width="59" height="63">
<path d="M58.1562 0.546875H0.15625V62.4135H58.1562V0.546875Z" fill="white"/>
</mask>
<g mask="url(#mask0_346_15400)">
<mask id="mask1_346_15400" style="mask-type:alpha" maskUnits="userSpaceOnUse" x="9" y="11" width="43" height="39">
<path d="M30.5746 12.0592C38.9685 10.2117 46.1641 15.7863 49.0038 20.0498C52.1539 24.7794 52.0143 31.9587 50.6797 36.4457C47.6785 46.5355 42.1864 48.1895 31.7208 49.3211C23.6566 50.193 17.1702 50.6184 11.4016 43.2276C7.01572 37.6083 10.6242 31.5919 11.9417 27.1625C14.9429 17.0728 20.294 14.322 30.5746 12.0592Z" fill="#FF7300"/>
</mask>
<g mask="url(#mask1_346_15400)">
<g opacity="0.99">
<path d="M12.2185 50.7058C1.27086 40.8485 0.385585 23.9566 10.2429 13.009C20.1001 2.06134 36.9921 1.17607 47.9397 11.0333C58.8873 20.8906 59.7726 37.7826 49.9153 48.7302C40.058 59.6778 23.1661 60.5631 12.2185 50.7058Z" fill="url(#paint0_linear_346_15400)"/>
</g>
</g>
<mask id="mask2_346_15400" style="mask-type:alpha" maskUnits="userSpaceOnUse" x="9" y="11" width="43" height="39">
<path d="M30.5746 12.0592C38.9685 10.2117 46.1641 15.7863 49.0038 20.0498C52.1539 24.7794 52.0143 31.9587 50.6797 36.4457C47.6785 46.5355 42.1864 48.1895 31.7208 49.3211C23.6566 50.193 17.1702 50.6184 11.4016 43.2276C7.01572 37.6083 10.6242 31.5919 11.9417 27.1625C14.9429 17.0728 20.294 14.322 30.5746 12.0592Z" fill="#FF7300"/>
</mask>
<g mask="url(#mask2_346_15400)">
<g opacity="0.58">
<mask id="mask3_346_15400" style="mask-type:luminance" maskUnits="userSpaceOnUse" x="-9" y="24" width="60" height="61">
<path d="M3.1314 78.2967C-10.015 68.6327 -12.8382 50.1411 -3.17421 36.9947C6.48981 23.8483 24.9813 21.0252 38.1277 30.6892C51.2741 40.3533 54.0973 58.8446 44.4332 71.991C34.7692 85.1374 16.2778 87.9607 3.1314 78.2967Z" fill="url(#paint1_radial_346_15400)"/>
</mask>
<g mask="url(#mask3_346_15400)">
<path d="M3.1314 78.2967C-10.015 68.6327 -12.8382 50.1411 -3.17421 36.9947C6.48981 23.8483 24.9813 21.0252 38.1277 30.6892C51.2741 40.3533 54.0973 58.8446 44.4332 71.991C34.7692 85.1374 16.2778 87.9607 3.1314 78.2967Z" fill="url(#paint2_radial_346_15400)"/>
</g>
</g>
</g>
<mask id="mask4_346_15400" style="mask-type:alpha" maskUnits="userSpaceOnUse" x="9" y="11" width="43" height="39">
<path d="M30.5746 12.0592C38.9685 10.2117 46.1641 15.7863 49.0038 20.0498C52.1539 24.7794 52.0143 31.9587 50.6797 36.4457C47.6785 46.5355 42.1864 48.1895 31.7208 49.3211C23.6566 50.193 17.1702 50.6184 11.4016 43.2276C7.01572 37.6083 10.6242 31.5919 11.9417 27.1625C14.9429 17.0728 20.294 14.322 30.5746 12.0592Z" fill="#FF7300"/>
</mask>
<g mask="url(#mask4_346_15400)">
<mask id="mask5_346_15400" style="mask-type:luminance" maskUnits="userSpaceOnUse" x="-9" y="-6" width="46" height="46">
<path d="M0.860605 34.8027C-8.978 27.5703 -11.0909 13.7314 -3.85843 3.89283C3.374 -5.94577 17.2128 -8.05851 27.0514 -0.826088C36.89 6.40634 39.0028 20.245 31.7704 30.0836C24.5379 39.9222 10.6992 42.0351 0.860605 34.8027Z" fill="url(#paint3_radial_346_15400)"/>
</mask>
<g mask="url(#mask5_346_15400)">
<path d="M0.860605 34.8027C-8.978 27.5703 -11.0909 13.7314 -3.85843 3.89283C3.374 -5.94577 17.2128 -8.05851 27.0514 -0.826088C36.89 6.40634 39.0028 20.245 31.7704 30.0836C24.5379 39.9222 10.6992 42.0351 0.860605 34.8027Z" fill="url(#paint4_radial_346_15400)"/>
</g>
</g>
<mask id="mask6_346_15400" style="mask-type:alpha" maskUnits="userSpaceOnUse" x="9" y="11" width="43" height="39">
<path d="M30.5746 12.0592C38.9685 10.2117 46.1641 15.7863 49.0038 20.0498C52.1539 24.7794 52.0143 31.9587 50.6797 36.4457C47.6785 46.5355 42.1864 48.1895 31.7208 49.3211C23.6566 50.193 17.1702 50.6184 11.4016 43.2276C7.01572 37.6083 10.6242 31.5919 11.9417 27.1625C14.9429 17.0728 20.294 14.322 30.5746 12.0592Z" fill="#FF7300"/>
</mask>
<g mask="url(#mask6_346_15400)">
<g opacity="0.98">
<mask id="mask7_346_15400" style="mask-type:luminance" maskUnits="userSpaceOnUse" x="23" y="-9" width="39" height="39">
<path d="M30.8759 26.267C22.3943 20.0322 20.5729 8.10212 26.8077 -0.379435C33.0426 -8.86099 44.9726 -10.6823 53.4541 -4.44747C61.9357 1.78738 63.7571 13.7173 57.5222 22.1988C51.2874 30.6804 39.3574 32.5019 30.8759 26.267Z" fill="url(#paint5_radial_346_15400)"/>
</mask>
<g mask="url(#mask7_346_15400)">
<path d="M30.8759 26.267C22.3943 20.0322 20.5729 8.10212 26.8077 -0.379435C33.0426 -8.86099 44.9726 -10.6823 53.4541 -4.44747C61.9357 1.78738 63.7571 13.7173 57.5222 22.1988C51.2874 30.6804 39.3574 32.5019 30.8759 26.267Z" fill="url(#paint6_radial_346_15400)"/>
</g>
</g>
</g>
<path d="M36.1689 25.2659C35.6492 26.2908 34.5214 26.8842 33.3628 26.7419C32.2042 26.5996 31.2536 25.7511 30.9974 24.6308C30.951 24.4278 30.7791 24.2742 30.5696 24.2485C30.5129 24.2415 30.4557 24.2442 30.3995 24.2566C30.2689 24.2855 30.1576 24.3634 30.0865 24.4759C30.0164 24.5867 29.9938 24.7177 30.0229 24.8452C30.3717 26.3716 31.6657 27.5273 33.2426 27.7209C34.8197 27.9145 36.355 27.1062 37.0627 25.7095C37.1218 25.5931 37.1316 25.4605 37.0903 25.336C37.0485 25.2095 36.9595 25.1072 36.8397 25.0473C36.5935 24.9248 36.2925 25.0225 36.1689 25.2659Z" fill="#141313"/>
<path d="M27.012 24.1418C26.4913 25.1736 25.3632 25.7713 24.2049 25.6291C23.0466 25.4869 22.0967 24.634 21.8411 23.5069C21.795 23.3035 21.6232 23.1496 21.4132 23.1238C21.3563 23.1168 21.2995 23.1195 21.2441 23.1317C21.1133 23.1604 21.0021 23.2378 20.9307 23.35C20.8603 23.4608 20.8376 23.5921 20.8664 23.7197C21.2141 25.2536 22.5071 26.4144 24.0847 26.6081C25.6618 26.8017 27.1976 25.9883 27.9064 24.5841C27.9657 24.4665 27.9752 24.3329 27.9331 24.208C27.8906 24.0831 27.8015 23.9815 27.6821 23.9223C27.5624 23.8628 27.427 23.8529 27.3001 23.8946C27.1737 23.9363 27.0712 24.0241 27.012 24.1418Z" fill="#141313"/>
<path d="M25.0918 29.8828C25.0918 29.8828 26.0089 30.6936 28.202 31.0259C30.4881 31.3722 31.5781 30.7335 31.5781 30.7335" stroke="#141313" stroke-width="1.06333" stroke-linecap="round"/>
</g>
</g>
<defs>
<linearGradient id="paint0_linear_346_15400" x1="50.4929" y1="49.2921" x2="9.94008" y2="14.1167" gradientUnits="userSpaceOnUse">
<stop offset="0.15" stop-color="#FFB700"/>
<stop offset="0.32" stop-color="#FF965C"/>
<stop offset="0.51" stop-color="#FF76B8"/>
<stop offset="0.74" stop-color="#FF755C"/>
<stop offset="0.9" stop-color="#FF7300"/>
</linearGradient>
<radialGradient id="paint1_radial_346_15400" cx="0" cy="0" r="1" gradientUnits="userSpaceOnUse" gradientTransform="translate(19.8085 54.3252) rotate(-160.245) scale(31.67 31.6701)">
<stop offset="0.49" stop-color="white"/>
<stop offset="0.72" stop-color="white" stop-opacity="0.5"/>
<stop offset="1" stop-color="white" stop-opacity="0"/>
</radialGradient>
<radialGradient id="paint2_radial_346_15400" cx="0" cy="0" r="1" gradientUnits="userSpaceOnUse" gradientTransform="translate(19.8085 54.3252) rotate(-160.245) scale(31.67 31.6701)">
<stop offset="0.59" stop-color="#FFCB00"/>
<stop offset="0.9" stop-color="#FFCB00"/>
<stop offset="1" stop-color="#FFCB00"/>
</radialGradient>
<radialGradient id="paint3_radial_346_15400" cx="0" cy="0" r="1" gradientUnits="userSpaceOnUse" gradientTransform="translate(14.4558 15.455) rotate(-160.245) scale(18.8371 18.8371)">
<stop offset="0.24" stop-color="white"/>
<stop offset="0.67" stop-color="white" stop-opacity="0.5"/>
<stop offset="1" stop-color="white" stop-opacity="0"/>
</radialGradient>
<radialGradient id="paint4_radial_346_15400" cx="0" cy="0" r="1" gradientUnits="userSpaceOnUse" gradientTransform="translate(14.4558 15.455) rotate(-160.245) scale(18.8371 18.8371)">
<stop stop-color="#FF6BB9"/>
<stop offset="0.75" stop-color="#FF6BB9"/>
<stop offset="1" stop-color="#FF6BB9"/>
</radialGradient>
<radialGradient id="paint5_radial_346_15400" cx="0" cy="0" r="1" gradientUnits="userSpaceOnUse" gradientTransform="translate(43.2947 8.90602) rotate(-160.245) scale(18.4232)">
<stop stop-color="white"/>
<stop offset="0.51" stop-color="white" stop-opacity="0.5"/>
<stop offset="1" stop-color="white" stop-opacity="0"/>
</radialGradient>
<radialGradient id="paint6_radial_346_15400" cx="0" cy="0" r="1" gradientUnits="userSpaceOnUse" gradientTransform="translate(43.2947 8.90602) rotate(-160.245) scale(18.4232)">
<stop stop-color="#FF4200"/>
<stop offset="0.39" stop-color="#FF4200"/>
<stop offset="1" stop-color="#FF4200"/>
</radialGradient>
<clipPath id="clip0_346_15400">
<rect width="58" height="58" fill="white" transform="translate(0.15625 0.546875)"/>
</clipPath>
</defs>
</svg>
