<svg width="59" height="59" viewBox="0 0 59 59" fill="none" xmlns="http://www.w3.org/2000/svg">
<g clip-path="url(#clip0_346_15472)">
<mask id="mask0_346_15472" style="mask-type:luminance" maskUnits="userSpaceOnUse" x="0" y="0" width="59" height="59">
<path d="M58.4844 0.546875H0.484375V58.5469H58.4844V0.546875Z" fill="white"/>
</mask>
<g mask="url(#mask0_346_15472)">
<path d="M46.6538 9.55389C44.4228 8.57089 42.0648 7.87989 39.6548 7.51089C37.3268 7.15489 34.9538 7.09989 32.6118 7.34689C30.3028 7.59089 28.0268 8.12589 25.8508 8.93589C23.6768 9.74589 21.6058 10.8289 19.7008 12.1539C17.7718 13.4949 16.0158 15.0829 14.4888 16.8689C12.9128 18.7129 11.5848 20.7659 10.5428 22.9559C9.39184 25.3729 8.66784 27.9699 8.48284 30.6429C8.31784 33.0149 8.56884 35.4129 9.21484 37.7009C9.85684 39.9739 10.8878 42.1349 12.2518 44.0629C13.6418 46.0269 15.3758 47.7439 17.3548 49.1129C18.4428 49.8649 19.6038 50.5129 20.8148 51.0459C25.1508 52.9569 30.0748 53.3309 34.6468 52.0799C41.2128 50.2829 47.1618 44.9779 48.9018 38.2699C50.5778 31.8089 47.1658 24.8909 41.0768 22.2069C35.1848 19.6099 28.0678 21.5239 24.2968 26.7519C22.9028 28.6849 21.9198 30.9839 22.3918 33.3949C22.8228 35.5999 24.3338 37.4919 26.3908 38.3969C29.8858 39.9359 33.9638 38.3559 35.5028 34.8599" stroke="#00A4FF" stroke-width="6.943" stroke-miterlimit="10"/>
</g>
</g>
<defs>
<clipPath id="clip0_346_15472">
<rect width="58" height="58" fill="white" transform="translate(0.484375 0.546875)"/>
</clipPath>
</defs>
</svg>
