<svg width="20" height="12" viewBox="0 0 20 12" fill="none" xmlns="http://www.w3.org/2000/svg">
<path d="M19.3333 9H17.4633C17.81 8.09501 18 7.06 18 6C18 2.68992 16.2067 0 14 0H4C1.79328 0 0 2.68998 0 6C0 9.31002 1.79332 12 4 12H19.3333C19.7 12 20 11.55 20 11V10C20 9.44998 19.7 9 19.3333 9ZM14 1C15.8367 1 17.3333 3.24499 17.3333 6C17.3333 7.08499 17.0967 8.14 16.6667 9H7.46325C7.80992 8.09501 7.99659 7.06 7.99659 6C7.99659 3.91501 7.28324 2.07488 6.20326 1H14ZM0.666667 6C0.666667 3.24499 2.16333 1 4 1C5.83667 1 7.33333 3.24499 7.33333 6C7.33333 7.08499 7.09666 8.14 6.66999 9H5.76C6.31667 8.26499 6.66999 7.19501 6.66999 6C6.66999 3.79501 5.47332 2 4.00333 2C2.53333 2 1.33666 3.79501 1.33666 6C1.33666 8.20499 2.53333 10 4.00333 10H9.33666V11H3.99991C2.16324 11 0.666667 8.75501 0.666667 6ZM2 6C2 4.34499 2.89666 3 4 3C5.10334 3 6 4.34499 6 6C6 7.65501 5.10334 9 4 9C2.89666 9 2 7.65501 2 6ZM10 11V10H19.3333V11H10Z" fill="white"/>
</svg>
