<svg width="48" height="48" viewBox="0 0 48 48" fill="none" xmlns="http://www.w3.org/2000/svg">
<rect width="48" height="48" rx="24" fill="#AD85D1"/>
<rect x="0.5" y="0.5" width="47" height="47" rx="23.5" stroke="#B3BAC3" stroke-opacity="0.4"/>
<path d="M35.1522 29.6477C35.2404 29.2834 35.2512 28.9079 35.2237 28.5385C35.1999 28.2186 35.3132 28.1569 35.5933 28.1742C36.0093 28.2001 36.4289 28.1927 36.8461 28.1791C37.5637 28.1556 37.9988 27.6875 37.9988 26.9501C38 24.9306 37.9952 22.9112 38 20.8904C38.0012 20.2579 37.5649 19.8158 36.9736 19.7169C36.5088 19.6391 36.0331 19.7379 35.5611 19.7207C35.4812 19.7182 35.399 19.7108 35.331 19.6675C35.1927 19.5811 35.1665 19.3847 35.1868 19.2192C35.3215 18.0951 34.7231 16.9452 33.5072 17.002C32.7431 17.0378 31.9766 17.007 31.2101 17.0107C30.2529 17.0156 29.6378 17.6616 29.6342 18.6609C29.6319 19.4835 29.6259 20.3061 29.639 21.1275C29.6426 21.361 29.5961 21.4437 29.3493 21.4437C25.8137 21.4351 22.2769 21.4351 18.7413 21.4437C18.51 21.4437 18.4337 21.3882 18.4385 21.1387C18.454 20.3024 18.4456 19.465 18.4433 18.6288C18.4421 17.6493 17.8496 17.0243 16.8936 17.0119C16.0449 17.002 15.195 17.0045 14.3462 17.0107C13.6608 17.0169 13.147 17.4257 12.9158 18.1013C12.7799 18.4978 12.8418 18.9017 12.849 19.2995C12.855 19.6058 12.8049 19.7355 12.4711 19.7071C12.042 19.6713 11.6081 19.6923 11.1766 19.6997C10.4935 19.712 10 20.2246 10 20.9225C10 21.5821 10.0274 22.2417 10.0536 22.9013C10.0977 24.0389 10.1073 25.1826 10.0548 26.3191C9.98093 27.936 10.5674 28.2522 11.8775 28.1842C12.1814 28.1682 12.5855 28.0706 12.7656 28.2287C12.9789 28.4164 12.8192 28.8487 12.8395 29.1748C12.9003 30.1778 13.544 31.0128 14.6049 30.9646C15.3416 30.9313 16.0818 30.9313 16.8185 30.9646C18.0594 31.019 18.4218 30.3261 18.4421 29.2663C18.4564 28.4585 18.4635 27.6494 18.4373 26.8428C18.4266 26.4933 18.4993 26.3821 18.8605 26.3871C20.5865 26.4093 22.3125 26.3969 24.0388 26.3969C25.7935 26.3969 27.5469 26.4043 29.3016 26.3883C29.5877 26.3858 29.6461 26.4723 29.6414 26.7477C29.6259 27.642 29.633 28.5362 29.6366 29.4305C29.6402 30.2853 30.0181 30.8547 30.8132 30.9239C31.849 31.0153 32.9028 31.0437 33.9374 30.8992C34.593 30.809 34.9889 30.3172 35.1522 29.6477ZM35.5444 21.2904C36.4921 21.2929 36.4921 21.2805 36.4921 22.2613V23.946C36.4921 24.7094 36.4826 25.4727 36.4969 26.2348C36.5016 26.4769 36.4373 26.5448 36.2 26.5473C35.2345 26.5572 35.2357 26.5671 35.2345 25.5555C35.2345 24.245 35.2416 22.9357 35.2273 21.625C35.2249 21.3619 35.2822 21.2892 35.5444 21.2904ZM12.5773 26.5473C11.5318 26.572 11.5318 26.5819 11.5318 25.4987C11.5306 24.2165 11.5402 22.9344 11.5235 21.6523C11.5199 21.3707 11.5783 21.288 11.8608 21.2904C12.8383 21.2966 12.8383 21.283 12.8383 22.2724V23.9152C12.8383 24.6933 12.8323 25.4715 12.8419 26.2497C12.8455 26.4572 12.8121 26.5424 12.5773 26.5473ZM16.909 29.0856C16.909 29.2832 16.8459 29.3252 16.6718 29.3228C15.9769 29.3141 15.2807 29.303 14.5858 29.324C14.3056 29.3326 14.3533 29.1659 14.3533 28.9979V23.9399C14.3533 22.2687 14.3605 20.5963 14.3462 18.9252C14.3438 18.6386 14.4189 18.5645 14.6895 18.5732C15.3427 18.5942 15.9972 18.5867 16.6504 18.5756C16.8447 18.5732 16.9114 18.6213 16.9114 18.8387C16.9031 22.2553 16.9031 25.6703 16.909 29.0856ZM29.3289 24.7552C27.5611 24.7453 25.7932 24.7502 24.0254 24.7502C22.3148 24.7502 20.5161 24.5847 18.8187 24.7675C18.69 24.7811 18.5362 24.7564 18.4754 24.6378C18.4456 24.5785 18.4444 24.5094 18.4444 24.4427C18.4456 24.0375 18.2168 23.079 18.7663 23.079C22.2888 23.0864 25.8101 23.0864 29.3326 23.079C29.5567 23.079 29.6556 23.1186 29.6389 23.3792C29.6163 23.7386 29.6163 24.1018 29.6389 24.46C29.6556 24.7231 29.5506 24.7564 29.3289 24.7552ZM33.3424 29.3329C32.7034 29.3094 32.0621 29.3168 31.422 29.3292C31.211 29.3341 31.1383 29.2835 31.1383 29.0475C31.1454 25.6433 31.1454 22.2393 31.1383 18.8351C31.1383 18.6201 31.2038 18.5707 31.3981 18.5744C32.0657 18.5856 32.7344 18.5954 33.402 18.572C33.6857 18.5621 33.7083 18.6807 33.7071 18.924C33.6976 20.5977 33.7023 22.2701 33.7023 23.9438C33.7023 25.6174 33.694 27.2898 33.7107 28.9635C33.7143 29.2748 33.6272 29.344 33.3424 29.3329Z" fill="white"/>
</svg>
