<svg width="138" height="28" viewBox="0 0 138 28" fill="none" xmlns="http://www.w3.org/2000/svg">
<path d="M110.64 11.0813C110.752 11.3595 110.835 11.5799 110.948 11.8812C109.045 11.8812 107.227 11.8812 105.312 11.8812C106.247 9.61105 107.172 7.36595 108.173 4.93359C109.036 7.09072 109.823 9.05714 110.64 11.0813Z" fill="#FDFDFD"/>
<path d="M20.5795 13.1498C20.581 13.2396 20.5826 13.3294 20.5556 13.4515C20.5015 13.8145 20.476 14.1453 20.4505 14.476C20.2535 15.6552 19.8483 16.77 19.3632 17.854C18.921 18.8419 18.4339 19.8098 17.9669 20.7866C17.9107 20.9042 17.8563 21.0226 17.801 21.1406C17.8249 21.1559 17.8488 21.1713 17.8727 21.1867C18.1323 20.891 18.3921 20.5955 18.6514 20.2996C19.3655 19.485 20.0607 18.6531 20.7974 17.8596C22.0073 16.5564 23.2015 15.2339 24.481 14.0013C25.8667 12.6664 27.3448 11.4274 29.0873 10.5587C29.3207 10.4423 29.5707 10.3513 29.8219 10.2801C30.2291 10.1647 30.5695 10.4197 30.5669 10.8433C30.5656 11.0495 30.5234 11.2622 30.4622 11.4603C29.5932 14.2701 28.8876 17.1216 28.3284 20.0074C28.1358 21.0017 28.0646 22.0191 27.913 23.0221C27.8028 23.7515 27.8497 24.4713 28.0533 25.167C28.159 25.5283 28.4164 25.8433 28.5867 26.1883C28.6694 26.3559 28.7867 26.5622 28.7507 26.7196C28.6968 26.9556 28.4474 27.0106 28.2091 26.9987C26.6157 26.919 25.3588 26.0197 25.1878 24.1826C25.0244 22.4282 25.3453 20.7306 25.678 19.0303C25.8325 18.2406 26.0207 17.4575 26.1945 16.6676C25.8112 17.039 25.4112 17.3907 25.053 17.7808C24.1709 18.7413 23.3206 19.731 22.4343 20.6874C21.3184 21.8916 20.205 23.1001 19.0422 24.2582C18.0939 25.2027 17.0481 26.0388 15.7858 26.5508C15.2232 26.779 14.6427 26.8161 14.0536 26.6799C13.2478 26.4936 12.7058 25.8039 12.6799 24.9708C12.6466 23.9002 12.9659 22.9076 13.4122 21.9661C14.3127 20.0661 15.2707 18.1935 16.1922 16.3034C16.6522 15.3599 17.1565 14.4284 17.369 13.389C17.4468 13.0081 17.4494 12.6004 17.4156 12.211C17.3782 11.7797 17.0928 11.5962 16.6575 11.5726C15.5589 11.5132 14.6333 11.9965 13.8013 12.5973C12.2691 13.7037 10.7609 14.8511 9.31561 16.0679C7.76376 17.3745 6.27519 18.7588 4.79747 20.15C3.55714 21.3177 2.37429 22.5464 1.15955 23.7416C1.02069 23.8782 0.849049 24.0464 0.676789 24.0668C0.48611 24.0895 0.172 24.0154 0.100893 23.8823C-0.00648482 23.6813 -0.0375218 23.3537 0.0538173 23.1489C0.305596 22.5844 0.623595 22.0474 0.940735 21.5146C1.94301 19.8307 3.10436 18.2568 4.34332 16.7432C6.11456 14.5793 8.09429 12.6239 10.3153 10.9171C11.5224 9.98936 12.7918 9.16014 14.2472 8.69112C15.6141 8.25058 17.0132 8.11265 18.349 8.8131C19.6653 9.50332 20.3933 10.6136 20.5289 12.1023C20.5383 12.2055 20.5642 12.3073 20.5627 12.4544C20.5552 12.7161 20.5673 12.9329 20.5795 13.1498ZM17.7263 21.295C17.7427 21.2884 17.7592 21.2818 17.7757 21.2752C17.7534 21.2741 17.7311 21.2729 17.7263 21.295Z" fill="url(#paint0_linear_346_15293)"/>
<path d="M29.6013 3.83197C29.8015 4.66897 29.8072 5.4778 29.5051 6.26485C28.9983 7.58498 27.5632 8.55334 26.1555 8.61377C25.0994 8.65912 24.1525 8.44696 23.3607 7.7131C22.5968 7.00526 22.1518 6.15199 22.0957 5.09309C22.0441 4.11927 22.243 3.22111 22.8694 2.46945C24.5559 0.445884 27.4209 0.545376 28.9354 2.56373C29.2133 2.93407 29.3758 3.39095 29.6013 3.83197Z" fill="url(#paint1_linear_346_15293)"/>
<path d="M53.4425 22.2858C53.4494 22.4534 53.4564 22.621 53.3876 22.8506C52.7088 22.9124 52.1023 22.8701 51.504 22.9236C50.8552 22.9817 50.7095 22.716 50.7145 22.0944C50.7413 18.7626 50.7329 15.4303 50.7151 12.0983C50.7137 11.8378 50.5466 11.5781 50.4566 11.3181C49.5334 12.7205 48.61 14.1228 47.6871 15.5254C47.3504 16.0371 47.0149 16.5495 46.6785 17.0614C46.0011 18.0919 45.0671 18.0792 44.377 17.0457C43.1306 15.1789 41.8735 13.3196 40.5282 11.4161C40.3823 11.6299 40.2834 11.8847 40.2826 12.1398C40.2723 15.4744 40.2622 18.8091 40.2886 22.1434C40.2933 22.7477 40.1314 22.97 39.5264 22.9243C38.8765 22.8751 38.22 22.9166 37.5664 22.9185C37.5664 17.3404 37.5664 11.7623 37.5664 6.06941C38.4307 6.06941 39.2541 6.03205 40.0698 6.09619C40.2687 6.11184 40.4777 6.43679 40.6225 6.65979C42.1655 9.03654 43.696 11.4217 45.2325 13.8028C45.2853 13.8846 45.3652 13.9482 45.4664 14.0566C47.0848 11.5447 48.6828 9.06451 50.3694 6.53713C50.4954 6.39618 50.5328 6.30238 50.5702 6.20859C50.5702 6.20859 50.5748 6.21871 50.6042 6.20558C50.6788 6.1668 50.7083 6.12852 50.722 6.07759C51.0366 6.07347 51.3513 6.06935 51.7767 6.11611C52.0107 6.18483 52.1339 6.21732 52.2573 6.21821C53.3708 6.22618 53.3017 6.0666 53.3021 7.3044C53.3035 12.0044 53.3005 16.7045 53.3092 21.4045C53.3098 21.6983 53.3961 21.9921 53.4425 22.2858Z" fill="#2C2C2C"/>
<path d="M128.879 18.5334C128.879 19.8984 128.879 21.1857 128.879 22.5265C127.875 22.5265 126.947 22.5265 125.959 22.5265C125.909 22.2659 125.853 21.977 125.786 21.6356C125.659 21.684 125.548 21.6922 125.49 21.7529C123.447 23.9042 119.01 23.004 117.666 19.9229C116.431 17.09 116.85 13.4454 118.818 11.4574C120.513 9.74368 123.085 9.49846 125.095 10.8576C125.284 10.9849 125.476 11.1055 125.822 11.3299C125.822 9.17888 125.822 7.14434 125.822 5.06641C126.891 5.06641 127.82 5.06641 128.879 5.06641C128.879 9.53137 128.879 13.9936 128.879 18.5334ZM123.146 12.6621C122.643 12.8076 122.08 12.8523 121.647 13.1164C120.003 14.118 119.495 17.0622 120.601 18.8654C121.48 20.2985 123.28 20.6996 124.626 19.7032C126.08 18.6276 126.124 17.0159 125.933 15.4346C125.746 13.895 124.793 12.9571 123.146 12.6621ZM125.893 21.4132C125.896 21.3604 125.898 21.3076 125.9 21.2549C125.882 21.2921 125.864 21.3294 125.893 21.4132Z" fill="#2C2C2C"/>
<path d="M109.612 22.9314C107.556 22.9312 107.567 22.9277 106.926 21.1197C106.629 20.2849 106.514 19.1663 105.89 18.7265C105.277 18.2948 104.124 18.5404 103.207 18.5253C102.013 18.5055 100.818 18.5427 99.6244 18.5116C99.1756 18.4999 98.9609 18.6399 98.8204 19.0409C98.443 20.1184 98.0079 21.1775 97.6332 22.2558C97.4934 22.6584 97.2879 22.8084 96.8346 22.7881C95.9899 22.7504 95.142 22.7773 94.1406 22.7773C94.6535 21.5 95.1292 20.3114 95.6079 19.1238C97.251 15.0475 98.9069 10.9757 100.526 6.89078C100.768 6.2811 101.078 5.99071 101.789 6.072C102.338 6.13491 102.909 6.13974 103.457 6.07351C104.115 5.99408 104.382 6.26599 104.601 6.81716C106.389 11.3274 108.206 15.8276 110.015 20.3304C110.326 21.1039 110.643 21.875 111.013 22.7864C110.494 22.8431 110.091 22.8872 109.612 22.9314ZM104.74 15.2148C104.026 13.3508 103.311 11.4868 102.528 9.44205C101.619 11.7477 100.78 13.8758 99.9311 16.0278C101.669 16.0278 103.319 16.0278 105.047 16.0278C104.944 15.7421 104.869 15.5332 104.74 15.2148Z" fill="#2C2C2C"/>
<path d="M62.095 22.911C60.2485 23.0119 58.5913 22.7257 57.12 21.7374C54.8303 20.1995 54.2045 18.0126 54.5127 15.5802C55.2101 10.0775 61.3048 8.9121 65.1231 10.9973C67.2599 12.1642 68.6536 15.0149 68.2718 17.2652C67.8005 20.043 66.219 21.948 63.2367 22.7307C62.8916 22.8214 62.5277 22.8506 62.095 22.911ZM63.3924 19.6765C64.9944 18.5224 65.2008 16.0088 64.2748 14.3502C63.633 13.2007 62.5129 12.7286 61.1873 12.7148C59.9223 12.7016 58.8616 13.2192 58.3918 14.3238C58.0453 15.1386 57.8039 16.069 57.8446 16.9345C57.9791 19.7944 60.7979 21.2094 63.3924 19.6765Z" fill="#2C2C2C"/>
<path d="M83.4253 17.2767C84.2068 19.492 85.0458 20.1869 86.9402 20.271C88.642 20.3465 90.2062 20.0337 91.6531 18.688C91.6531 19.7961 91.6638 20.713 91.6395 21.629C91.6364 21.7426 91.4673 21.8841 91.3417 21.9577C89.1327 23.251 84.2922 23.5615 81.9755 20.951C79.6456 18.3257 79.3262 13.0326 83.1722 10.7535C83.8412 10.357 84.7011 10.1704 85.4931 10.0963C86.9406 9.96098 88.4001 9.93904 89.682 10.8572C91.3966 12.0851 91.957 13.8506 92.1439 15.7963C92.1833 16.2061 92.1256 16.6249 92.0161 17.0331C89.2003 17.0113 86.4811 16.9951 83.7619 16.986C83.6966 16.9857 83.6311 17.0635 83.5657 17.1049C83.5657 17.1049 83.5751 17.1236 83.5356 17.1382C83.4463 17.1796 83.4226 17.2209 83.4253 17.2767ZM89.2193 15.3234C89.1424 13.6143 88.0762 12.4733 86.5343 12.45C84.8382 12.4244 83.6233 13.6059 83.6366 15.4557C85.3537 15.4876 87.0708 15.5226 88.788 15.5446C88.9032 15.546 89.0197 15.4491 89.2193 15.3234Z" fill="#2C2C2C"/>
<path d="M70.8285 11.5338C71.8409 14.2486 72.8272 16.9087 73.8848 19.7614C74.4911 18.1002 75.0289 16.6312 75.5631 15.1611C75.9974 13.9662 76.4395 12.7736 76.8519 11.5722C76.9844 11.1865 77.1822 11.0062 77.648 11.0247C78.4732 11.0576 79.3011 11.034 80.2465 11.034C79.9091 11.8505 79.6075 12.5806 79.3056 13.3107C78.0749 16.2871 76.8551 19.2676 75.5942 22.2332C75.4817 22.4978 75.1249 22.8126 74.8424 22.8496C74.107 22.946 73.3404 22.9659 72.6066 22.8756C72.3607 22.8453 72.1007 22.4173 71.9755 22.1243C70.9647 19.7579 69.984 17.3805 68.9949 15.0063C68.4598 13.7217 67.9261 12.4366 67.3438 11.0364C68.3924 11.0364 69.3207 11.0117 70.2451 11.0565C70.4383 11.0658 70.6169 11.3315 70.8285 11.5338Z" fill="#2C2C2C"/>
<path d="M113.685 5.06641C115.013 5.32827 115.36 7.48452 114.551 8.47517C114.101 9.02644 113.48 9.19259 112.91 8.87993C112.308 8.5499 112.002 7.91248 112.006 6.99651C112.01 6.14116 112.327 5.49415 112.922 5.21473C113.147 5.10926 113.4 5.10067 113.685 5.06641Z" fill="#2C2C2C"/>
<path d="M37.5664 22.7909C38.0012 22.7235 38.4391 22.6814 38.8727 22.7313C39.2762 22.7778 39.3842 22.5521 39.3811 21.9387C39.3635 18.5539 39.3702 15.1687 39.3771 11.7837C39.3776 11.5247 39.4436 11.2661 39.5064 11.0234C39.5422 14.8262 39.5535 18.6127 39.5511 22.3992C39.551 22.5855 39.4325 22.9318 39.3676 22.9327C38.7678 22.9413 38.1676 22.8901 37.5664 22.7909Z" fill="#2C2C2C"/>
<path d="M50.476 11.0234C50.5726 11.2133 50.742 11.4762 50.7434 11.7399C50.7615 15.1133 50.77 18.4869 50.7428 21.8601C50.7377 22.4894 50.8855 22.7584 51.5433 22.6996C52.15 22.6454 52.7651 22.6883 53.4483 22.6892C52.5744 22.7656 51.6288 22.8411 50.4707 22.9337C50.4707 18.8906 50.4707 14.9937 50.476 11.0234Z" fill="#2C2C2C"/>
<path d="M112.016 19.9483C112.016 17.1655 112.028 14.4609 112.006 11.7564C112.002 11.2368 112.139 11.0296 112.773 11.0258C114.971 11.0126 114.971 10.9904 114.971 12.9567C114.971 16.0254 114.957 19.0941 114.983 22.1626C114.988 22.7218 114.846 22.9351 114.17 22.9337C112.016 22.9289 112.016 22.9544 112.016 21.0406C112.016 20.7025 112.016 20.3645 112.016 19.9483Z" fill="#2C2C2C"/>
<defs>
<linearGradient id="paint0_linear_346_15293" x1="4.63135" y1="14.645" x2="24.4404" y2="30.7752" gradientUnits="userSpaceOnUse">
<stop offset="0.0384615" stop-color="#A3A5FF"/>
<stop offset="0.334135" stop-color="#CFBAE8"/>
<stop offset="0.629808" stop-color="#FACFD1"/>
<stop offset="1" stop-color="#FF7383" stop-opacity="0.67"/>
</linearGradient>
<linearGradient id="paint1_linear_346_15293" x1="23.2478" y1="3.5788" x2="29.849" y2="6.87839" gradientUnits="userSpaceOnUse">
<stop offset="0.0384615" stop-color="#A3A5FF"/>
<stop offset="0.629808" stop-color="#FACFD1"/>
<stop offset="0.875" stop-color="#CFBAE8"/>
<stop offset="1" stop-color="#FF7383" stop-opacity="0.67"/>
</linearGradient>
</defs>
</svg>
