<svg width="16" height="16" viewBox="0 0 16 16" fill="none" xmlns="http://www.w3.org/2000/svg">
<path d="M14.9326 6.20447L14.2819 3.03569C14.0912 2.10335 13.4723 1.31644 12.6126 0.913367L11.2801 0.280753C10.4693 -0.102522 9.52881 -0.0929551 8.72571 0.3069L8.09157 0.62448L8.0922 0.625118C7.29347 1.03007 6.91095 1.9605 7.1918 2.81241L7.45677 3.59744C7.61054 4.06171 7.98925 4.41499 8.46201 4.53552C8.93412 4.65542 9.43548 4.52596 9.79069 4.19115L9.88918 4.50364L9.88981 4.503C10.0239 4.92516 10.3022 5.28485 10.6765 5.52016L10.4172 8.88927V8.88863C9.61276 8.29173 8.63615 7.97414 7.63525 7.98563C6.6351 7.99647 5.6655 8.33509 4.87428 8.9505C3.91352 7.80644 2.53966 7.09282 1.05417 6.96662C0.785395 6.93729 0.517237 7.02402 0.315804 7.20512C0.115007 7.38687 0 7.64514 0 7.91682V14.3878C0 14.7564 0.210965 15.0924 0.542645 15.2519C1.36869 15.6422 3.46368 16.3883 5.4741 15.1467C6.57911 15.7123 7.80286 16.005 9.04321 15.9999C11.5709 16.0108 13.9607 14.8425 15.5099 12.8382C15.9471 12.2425 16.1021 11.4843 15.9331 10.7643L14.9326 6.20447ZM14.862 12.3463C13.8059 13.7129 12.3019 14.66 10.6161 15.0209C8.93032 15.3812 7.17204 15.1319 5.65206 14.3169C5.51672 14.2403 5.35023 14.2486 5.22316 14.3366C3.49741 15.5285 1.61647 14.8577 0.888857 14.5133V14.5139C0.841836 14.4897 0.812606 14.4412 0.813242 14.3883V7.91669C0.812607 7.8746 0.830399 7.83506 0.861535 7.80764C0.888859 7.78085 0.926983 7.7681 0.965109 7.77384C2.25439 7.87779 3.4471 8.49956 4.27248 9.4988C4.00115 9.79981 3.77431 10.1384 3.59704 10.5032C3.49918 10.706 3.58369 10.9502 3.78576 11.0484C3.98846 11.1466 4.2312 11.0625 4.32904 10.859C4.75414 10.0281 5.46962 9.38398 6.33881 9.04983C7.20743 8.71566 8.16883 8.71566 9.03813 9.04983C9.9074 9.38399 10.6229 10.0281 11.0474 10.859C11.116 11 11.2584 11.0892 11.414 11.0892C11.5538 11.0892 11.6841 11.0165 11.7584 10.8979C11.8328 10.7787 11.8411 10.6301 11.7801 10.5032C11.6187 10.176 11.4166 9.87056 11.1783 9.59443L11.47 5.79613C11.538 5.80506 11.606 5.8108 11.6746 5.81271H12.5064C12.7307 5.81271 12.913 5.62969 12.913 5.40457C12.913 5.17882 12.7307 4.99644 12.5064 4.99644H11.6746C11.2126 4.99707 10.8034 4.69672 10.6649 4.25477L9.96593 2.04511C9.93543 1.93924 9.86362 1.84997 9.76703 1.79768C9.67045 1.74538 9.5567 1.73518 9.45186 1.76834C9.34702 1.80214 9.25996 1.87612 9.21103 1.97496C9.1621 2.0738 9.15448 2.18796 9.1907 2.2919L9.39213 2.9309V2.93983H9.39277C9.49888 3.24911 9.34765 3.58839 9.0471 3.71529C8.88887 3.7848 8.70905 3.78353 8.5521 3.71146C8.39451 3.64004 8.27569 3.50421 8.22359 3.33905L7.96306 2.55274C7.80928 2.08657 8.01897 1.57703 8.4555 1.35575L9.08648 1.03881L9.08711 1.03817C9.66725 0.749929 10.3472 0.742909 10.9337 1.01904L12.2668 1.65229V1.65293C12.894 1.94565 13.3458 2.51959 13.4849 3.1994L14.1356 6.37455L15.137 10.94V10.9406C15.2546 11.4266 15.1542 11.9399 14.8619 12.3455L14.862 12.3463Z" fill="white"/>
</svg>
