<svg width="24" height="25" viewBox="0 0 24 25" fill="none" xmlns="http://www.w3.org/2000/svg">
<path d="M12.0201 3.41016C8.71009 3.41016 6.02009 6.10016 6.02009 9.41016V12.3002C6.02009 12.9102 5.76009 13.8402 5.45009 14.3602L4.30009 16.2702C3.59009 17.4502 4.08009 18.7602 5.38009 19.2002C9.69009 20.6402 14.3401 20.6402 18.6501 19.2002C19.8601 18.8002 20.3901 17.3702 19.7301 16.2702L18.5801 14.3602C18.2801 13.8402 18.0201 12.9102 18.0201 12.3002V9.41016C18.0201 6.11016 15.3201 3.41016 12.0201 3.41016Z" stroke="white" stroke-width="1.5" stroke-miterlimit="10" stroke-linecap="round"/>
<path d="M13.8699 3.70141C13.5599 3.61141 13.2399 3.54141 12.9099 3.50141C11.9499 3.38141 11.0299 3.45141 10.1699 3.70141C10.4599 2.96141 11.1799 2.44141 12.0199 2.44141C12.8599 2.44141 13.5799 2.96141 13.8699 3.70141Z" stroke="white" stroke-width="1.5" stroke-miterlimit="10" stroke-linecap="round" stroke-linejoin="round"/>
<path d="M15.02 19.5586C15.02 21.2086 13.67 22.5586 12.02 22.5586C11.2 22.5586 10.44 22.2186 9.90002 21.6786C9.36002 21.1386 9.02002 20.3786 9.02002 19.5586" stroke="white" stroke-width="1.5" stroke-miterlimit="10"/>
</svg>
