<svg width="59" height="59" viewBox="0 0 59 59" fill="none" xmlns="http://www.w3.org/2000/svg">
<path d="M28.0518 7.35148C28.771 7.61285 29.5289 7.7824 30.2022 8.15289C32.1854 9.24417 32.4373 9.34531 34.9407 12.0435C35.9956 10.8892 37.0594 9.74808 38.3409 8.91644C39.5995 8.09968 40.928 7.50704 42.3522 7.17596C43.5931 6.88747 44.8457 6.89147 46.0917 6.96154C46.7702 6.9997 47.4324 7.32601 48.1115 7.45789C49.6631 7.7592 50.9774 8.63076 52.2475 9.62357C52.4533 9.78439 52.6611 9.94172 52.8894 10.145C52.9312 10.2075 52.9515 10.2257 52.9718 10.244C52.9718 10.244 52.9644 10.2427 52.9687 10.266C53.0217 10.3289 53.0704 10.3685 53.1192 10.408C53.1192 10.408 53.1488 10.4093 53.174 10.4307C53.2178 10.4687 53.2381 10.4814 53.2603 10.4904C53.2603 10.4904 53.2518 10.4916 53.2624 10.5055C53.294 10.5371 53.315 10.5548 53.336 10.5725C53.3603 10.5719 53.3784 10.5838 53.4042 10.6452C53.4385 10.7011 53.4588 10.7197 53.4791 10.7383C53.5199 10.7749 53.5608 10.8115 53.6178 10.8892C53.6539 10.9496 53.674 10.9688 53.694 10.9881C53.694 10.9881 53.6846 10.9878 53.6951 11.0015C53.7258 11.0335 53.7461 11.0518 53.7664 11.0702C53.7664 11.0702 53.7571 11.0704 53.7674 11.084C53.7981 11.116 53.8184 11.1344 53.8387 11.1527C53.8387 11.1527 53.8294 11.153 53.8398 11.1666C53.8704 11.1985 53.8907 11.217 53.9109 11.2355C53.9109 11.2355 53.9015 11.2356 53.912 11.2492C53.9427 11.2812 53.9629 11.2996 53.9831 11.3181C53.9831 11.3181 53.9738 11.3182 53.9843 11.3318C54.015 11.3639 54.0352 11.3824 54.0554 11.4009C54.0554 11.4009 54.0458 11.4009 54.0567 11.4147C54.0889 11.4462 54.1102 11.464 54.1315 11.4818C55.1557 12.5624 55.854 13.9058 56.5105 15.2897C56.9863 16.2926 57.3122 17.3638 57.5479 18.4548C57.7646 19.4573 57.8252 20.5044 57.9481 21.5329C58.1215 22.984 57.8237 24.3816 57.5949 25.7925C57.3672 27.1971 56.8886 28.4876 56.3962 29.7864C55.8609 31.1988 55.1804 32.5091 54.4071 33.7551C53.7327 34.8416 52.9921 35.8744 52.2819 36.932C51.2326 38.4945 49.9506 39.8061 48.7179 41.2346C48.6621 41.2791 48.6453 41.302 48.6285 41.3248C48.6285 41.3248 48.6285 41.3142 48.6167 41.3262C48.5887 41.3613 48.5726 41.3844 48.5565 41.4074C48.5565 41.4074 48.5563 41.3968 48.5444 41.4091C48.5168 41.445 48.501 41.4686 48.4852 41.4922C48.4532 41.5388 48.4211 41.5855 48.3533 41.6509C48.3013 41.6927 48.285 41.7159 48.2687 41.739C48.2689 41.7668 48.2587 41.788 48.2052 41.8187C48.1562 41.8585 48.1401 41.8821 48.1241 41.9058C48.0919 41.9524 48.0597 41.999 47.9825 42.055C47.8559 42.148 47.7742 42.2315 47.6925 42.3151C47.6925 42.3151 47.6913 42.3069 47.6783 42.3182C47.6493 42.3525 47.6333 42.3755 47.6172 42.3986C47.6172 42.3986 47.6171 42.3883 47.6051 42.4001C47.577 42.4351 47.561 42.4581 47.545 42.4812C47.545 42.4812 47.5447 42.4708 47.5327 42.4831C47.5052 42.5193 47.4895 42.5432 47.4739 42.567C47.442 42.6134 47.41 42.6598 47.3422 42.7246C47.2895 42.766 47.2727 42.7891 47.2559 42.8122C47.2559 42.8122 47.2558 42.8013 47.244 42.8137C47.2165 42.85 47.2008 42.8739 47.1851 42.8978C47.1855 42.9252 47.1754 42.9459 47.1222 42.9756C47.0728 43.014 47.056 43.0369 47.0392 43.0597C47.0392 43.0597 47.0392 43.0492 47.0274 43.0615C46.9999 43.0972 46.9841 43.1205 46.9683 43.1438C46.9686 43.1714 46.9585 43.1924 46.9049 43.2232C46.8559 43.2637 46.84 43.288 46.8241 43.3122C46.8245 43.3391 46.8146 43.3595 46.7522 43.3771C46.6515 43.44 46.5932 43.4993 46.5348 43.5585C46.5349 43.5861 46.5246 43.6069 46.4663 43.6295C46.4102 43.6765 46.3917 43.7151 46.3733 43.7536C46.3733 43.7536 46.3682 43.7744 46.3446 43.7717C46.3211 43.7689 46.3002 43.7921 46.3002 43.7921L46.3075 43.8244C46.3075 43.8244 46.3022 43.8528 46.2684 43.8489C46.1901 43.8863 46.1456 43.9277 46.1012 43.969C46.1012 43.969 46.1002 43.959 46.0882 43.9707C46.0602 44.0055 46.0442 44.0287 46.0282 44.0518C46.0282 44.0518 46.028 44.041 46.0162 44.0529C45.9882 44.088 45.972 44.1111 45.9559 44.1343C45.9559 44.1343 45.9557 44.1236 45.9438 44.1355C45.9158 44.1705 45.8997 44.1936 45.8835 44.2167C45.8835 44.2167 45.8834 44.2061 45.8715 44.218C45.8435 44.253 45.8274 44.2761 45.8113 44.2993C45.8113 44.2993 45.8123 44.2911 45.7925 44.2952C45.7442 44.3375 45.7156 44.3757 45.687 44.4139C45.687 44.4139 45.683 44.3965 45.67 44.4002C45.6358 44.4241 45.6146 44.4442 45.5933 44.4643C45.5933 44.4643 45.594 44.4532 45.5822 44.4653C45.5544 44.5006 45.5385 44.5238 45.5225 44.547C45.5225 44.547 45.5234 44.5389 45.5033 44.5436C45.4491 44.6027 45.4151 44.657 45.381 44.7114C45.381 44.7114 45.3796 44.7031 45.3665 44.7145C45.3378 44.75 45.3223 44.774 45.3067 44.798C45.3068 44.8254 45.2966 44.8461 45.2371 44.8667C45.1615 44.9026 45.1247 44.932 45.088 44.9614C45.088 44.9614 45.088 44.9497 45.0766 44.9618C45.049 44.997 45.0329 45.02 45.0167 45.0431C45.0167 45.0431 45.0167 45.0324 45.0047 45.0443C44.9767 45.0794 44.9606 45.1026 44.9445 45.1258C44.9445 45.1258 44.9443 45.1149 44.9325 45.1271C44.9049 45.163 44.8892 45.1868 44.8734 45.2105C44.8736 45.2383 44.8632 45.2593 44.8103 45.286C44.7567 45.3104 44.7388 45.3274 44.7245 45.3493C44.7245 45.3493 44.6976 45.3629 44.6656 45.3748C44.6167 45.4099 44.5999 45.433 44.583 45.4562C44.583 45.4562 44.583 45.4454 44.5711 45.4573C44.5432 45.4925 44.5272 45.5158 44.5112 45.539C44.5112 45.539 44.5108 45.5281 44.499 45.5404C44.4714 45.5766 44.4557 45.6005 44.44 45.6244C44.4403 45.6519 44.43 45.6728 44.3697 45.6952C44.2947 45.7576 44.2594 45.8118 44.224 45.866C44.224 45.866 44.2228 45.8603 44.2029 45.8632C44.1482 45.8957 44.1135 45.9253 44.0787 45.9549C44.079 45.9823 44.0689 46.0031 44.0158 46.0324C43.9665 46.0696 43.9498 46.0916 43.933 46.1136C43.933 46.1136 43.9338 46.1077 43.9141 46.1115C43.8589 46.1438 43.8233 46.1722 43.7878 46.2007C43.7878 46.2007 43.7878 46.1891 43.7764 46.2011C43.7488 46.2362 43.7327 46.2593 43.7165 46.2824C43.7165 46.2824 43.7164 46.2718 43.7045 46.2839C43.6766 46.3189 43.6604 46.3419 43.6442 46.3649C43.6442 46.3649 43.6441 46.3544 43.6323 46.3665C43.6042 46.4015 43.588 46.4245 43.5717 46.4475C43.5717 46.4475 43.5719 46.4369 43.5598 46.4487C43.5317 46.4837 43.5157 46.5069 43.4997 46.5302C43.4997 46.5302 43.501 46.5223 43.4816 46.5247C43.4263 46.556 43.3904 46.585 43.3544 46.614C43.3544 46.614 43.3541 46.6025 43.3426 46.6144C43.3152 46.6499 43.2994 46.6734 43.2835 46.697C43.2835 46.697 43.2833 46.6852 43.2715 46.6977C43.2443 46.7351 43.229 46.76 43.2137 46.7849C43.2137 46.7849 43.2133 46.7706 43.2018 46.7813C43.173 46.815 43.1556 46.8379 43.1383 46.8607C43.1383 46.8607 43.1383 46.8501 43.1263 46.8619C43.0983 46.8969 43.0823 46.9202 43.0664 46.9435C43.0664 46.9435 43.0676 46.9355 43.0482 46.9381C42.9933 46.9709 42.9579 47.0012 42.9224 47.0315C42.9224 47.0315 42.9223 47.0174 42.9111 47.0286C42.8831 47.0628 42.8663 47.0858 42.8495 47.1088C42.8495 47.1088 42.8494 47.098 42.8375 47.1098C42.8095 47.1447 42.7934 47.1678 42.7773 47.1909C42.7773 47.1909 42.7779 47.1813 42.7661 47.1899C42.7326 47.2103 42.7151 47.2276 42.7017 47.2503C42.7017 47.2503 42.6738 47.2628 42.642 47.2769C42.5949 47.3163 42.5796 47.3418 42.5643 47.3672C41.8317 47.996 41.1079 48.6388 40.3642 49.25C39.4002 50.0422 38.4227 50.8132 37.4461 51.5852C37.0322 51.9124 36.6211 52.2509 36.1816 52.528C35.4111 53.0139 34.6107 53.0917 33.8415 52.526C32.8926 51.8281 31.9416 51.13 31.0274 50.3751C29.5736 49.1747 28.1299 47.956 26.7191 46.6909C25.5018 45.5994 24.3363 44.4322 23.1474 43.2992C23.1294 43.2821 23.1048 43.2742 23.0593 43.2214C23.0151 43.1649 22.9949 43.1488 22.9747 43.1328C22.9747 43.1328 22.9825 43.1324 22.9725 43.118C22.9421 43.0859 22.9217 43.0681 22.9014 43.0503C22.9014 43.0503 22.9102 43.05 22.9001 43.036C22.8697 43.0039 22.8494 42.9859 22.8291 42.9678C22.8291 42.9678 22.8379 42.9673 22.8277 42.9536C22.7972 42.9216 22.7771 42.9033 22.7569 42.885C22.7569 42.885 22.7658 42.8848 22.7555 42.8709C22.725 42.8389 22.7049 42.8206 22.6847 42.8024C22.6847 42.8024 22.6935 42.8022 22.6832 42.7883C22.6528 42.7562 22.6327 42.738 22.6125 42.7197C22.6125 42.7197 22.6193 42.7206 22.6154 42.6974C22.564 42.6355 22.5165 42.5966 22.4691 42.5578C22.4691 42.5578 22.476 42.5564 22.4661 42.5413C22.4355 42.5084 22.415 42.4906 22.3944 42.4727C22.3944 42.4727 22.4039 42.4725 22.394 42.4586C22.3639 42.4261 22.3438 42.4075 22.3237 42.389C22.3237 42.389 22.3325 42.3888 22.3222 42.3749C22.2918 42.3428 22.2716 42.3246 22.2514 42.3064C22.2514 42.3064 22.2603 42.3062 22.2498 42.2922C22.2184 42.2605 22.1975 42.2428 22.1765 42.2251C22.1765 42.2251 22.1471 42.2231 22.1219 42.2019C22.078 42.1636 22.0574 42.1511 22.0347 42.143C22.0347 42.143 22.0428 42.1419 22.0329 42.1278C22.0029 42.0955 21.9828 42.0774 21.9628 42.0592C21.9628 42.0592 21.9691 42.0598 21.9649 42.0365C21.9137 41.9743 21.8666 41.9353 21.8195 41.8963C21.8195 41.8963 21.8261 41.8951 21.8161 41.8802C21.7862 41.8471 21.7663 41.8288 21.7465 41.8106C21.7465 41.8106 21.7546 41.8104 21.7443 41.7965C21.7141 41.7646 21.6942 41.7465 21.6743 41.7285C21.6743 41.7285 21.6804 41.729 21.6763 41.7082C21.6394 41.6674 21.6067 41.6473 21.574 41.6273C21.574 41.6273 21.5548 41.6215 21.5565 41.5941C21.5477 41.5405 21.5315 41.5348 21.5098 41.5495C21.5098 41.5495 21.4858 41.5432 21.4858 41.5135C21.4753 41.4579 21.4593 41.4522 21.4377 41.467C21.4377 41.467 21.4141 41.4606 21.4139 41.4305C21.403 41.3742 21.3864 41.3678 21.3639 41.3814C21.3639 41.3814 21.3453 41.3788 21.344 41.3438C21.3085 41.2837 21.2742 41.2585 21.2399 41.2333C21.2151 41.2339 21.1962 41.2221 21.1755 41.1547C21.1345 41.0909 21.1012 41.0703 21.068 41.0497C21.068 41.0497 21.0483 41.0428 21.0503 41.0154C21.0419 40.9622 21.0261 40.9568 21.0049 40.9715C21.0049 40.9715 20.9801 40.9646 20.9801 40.935C20.9696 40.8797 20.9539 40.8743 20.9329 40.8892C20.9329 40.8892 20.9078 40.8821 20.9077 40.8523C20.8972 40.797 20.8816 40.7917 20.8606 40.8065C20.8606 40.8065 20.8356 40.7995 20.8355 40.7697C20.8251 40.7143 20.8094 40.709 20.7883 40.7239C20.7883 40.7239 20.7663 40.7201 20.765 40.684C20.7306 40.6232 20.6975 40.5985 20.6645 40.5737C20.6645 40.5737 20.6705 40.5727 20.6606 40.5577C20.6309 40.5245 20.6112 40.5063 20.5915 40.4881C20.5915 40.4881 20.5993 40.4878 20.5885 40.4739C20.5572 40.4423 20.5366 40.4246 20.5161 40.407C20.4045 40.2895 20.2928 40.172 20.1626 40.0108C20.1238 39.9485 20.1035 39.9299 20.0832 39.9112C19.9952 39.8205 19.9071 39.7298 19.8073 39.5903C19.7621 39.5204 19.7287 39.4993 19.6952 39.4782C19.6952 39.4782 19.6764 39.472 19.6786 39.4451C19.6704 39.3924 19.6547 39.3872 19.6337 39.4027C19.6337 39.4027 19.6107 39.3986 19.6092 39.362C19.5744 39.3012 19.541 39.2769 19.5076 39.2526C19.5076 39.2526 19.5144 39.2508 19.5046 39.2358C19.4747 39.2025 19.4545 39.1842 19.4343 39.166C19.4343 39.166 19.4435 39.1658 19.4332 39.1522C19.4028 39.1202 19.3827 39.1019 19.3626 39.0835C19.3626 39.0835 19.3693 39.0845 19.3662 39.062C19.336 39 19.3088 38.9604 19.2816 38.9208C19.2579 38.9215 19.2411 38.9095 19.2186 38.8476C19.1857 38.791 19.1654 38.7718 19.1452 38.7525C19.1452 38.7525 19.1547 38.7526 19.1443 38.7389C19.1136 38.7069 19.0933 38.6886 19.073 38.6702C19.073 38.6702 19.0823 38.6699 19.0719 38.6564C19.0413 38.6244 19.021 38.6059 19.0008 38.5875C19.0008 38.5875 19.0101 38.5873 18.9997 38.5738C18.969 38.5417 18.9488 38.5233 18.9286 38.5049C18.9286 38.5049 18.938 38.5045 18.9272 38.491C18.8955 38.4595 18.8746 38.4416 18.8537 38.4236C18.8296 38.4242 18.8114 38.4127 18.7854 38.3518C18.7518 38.2953 18.7319 38.2761 18.712 38.2568C18.712 38.2568 18.7212 38.2568 18.7105 38.2434C18.6797 38.2114 18.6597 38.1928 18.6397 38.1742C18.6397 38.1742 18.649 38.1744 18.6385 38.1606C18.6078 38.1285 18.5876 38.1102 18.5673 38.0918C18.5673 38.0918 18.5766 38.0916 18.5663 38.078C18.5357 38.0459 18.5154 38.0275 18.4951 38.0091C18.4951 38.0091 18.5038 38.0098 18.4963 37.9962C18.4785 37.9574 18.4632 37.9373 18.4428 37.9223C16.9379 36.0504 15.6269 34.0083 14.4769 31.8386C13.969 30.8804 13.5433 29.8545 13.1672 28.8181C12.6617 27.4252 12.2479 25.9888 12.0805 24.4806C12.0313 24.0367 12.0273 23.5863 12.0032 23.0624C12.0025 22.5642 12.0013 22.1425 12 21.7208C12 21.7208 12.0032 21.7299 12.0196 21.7063C12.049 21.363 12.0619 21.0433 12.0747 20.7237C12.1864 19.9498 12.2983 19.176 12.4096 18.4022C12.421 18.3231 12.4298 18.2435 12.4579 18.1171C12.4896 18.0489 12.5 18.026 12.5073 18.0012C12.5073 18.0012 12.5084 18.0122 12.5249 17.9929C12.5783 17.7888 12.6153 17.6039 12.6523 17.419C12.6523 17.419 12.6532 17.3856 12.6723 17.3563C12.7024 17.3024 12.7135 17.2777 12.7246 17.2531C12.7246 17.2531 12.7257 17.2186 12.7464 17.1805C12.777 17.0695 12.7868 16.9966 12.7967 16.9237C12.7967 16.9237 12.7979 16.8891 12.8182 16.8544C12.8487 16.7714 12.8588 16.7232 12.869 16.6751C12.869 16.6751 12.8699 16.6413 12.8887 16.6125C12.9216 16.562 12.9328 16.5384 12.9409 16.513C12.9409 16.513 12.9418 16.5246 12.9549 16.5084C12.9831 16.4436 12.9982 16.3949 13.0134 16.3462C13.3426 15.5993 13.6436 14.8336 14.0096 14.1111C14.3313 13.476 14.6908 12.8563 15.0976 12.2899C15.5439 11.6687 16.0292 11.0712 16.559 10.5444C17.3744 9.73383 18.2543 9.00192 19.2555 8.51737C20.1464 8.08616 21.0679 7.73743 22.0294 7.35253C22.1427 7.3294 22.2025 7.30605 22.2623 7.28269C22.2623 7.28269 22.2901 7.26974 22.3354 7.27085C22.5102 7.23992 22.6396 7.2079 22.7691 7.17587C22.7691 7.17587 22.7666 7.18565 22.7896 7.18615C22.8942 7.15559 22.9757 7.12452 23.0573 7.09345C23.0573 7.09345 23.0557 7.10264 23.0843 7.10336C23.3345 7.07888 23.556 7.05368 23.7775 7.02848C24.01 6.9986 24.242 6.95087 24.475 6.94282C24.8707 6.92914 25.267 6.94048 25.7205 6.96606C25.981 6.99985 26.1843 7.00889 26.3875 7.01792C26.3875 7.01792 26.3789 7.02067 26.3991 7.03941C26.7459 7.09986 27.0724 7.14156 27.3989 7.18326C27.3989 7.18326 27.3903 7.18655 27.4092 7.20389C27.5399 7.23703 27.6516 7.25283 27.7634 7.26863C27.7634 7.26863 27.7942 7.26972 27.8274 7.29369C27.9244 7.32894 27.9881 7.34021 28.0518 7.35148ZM45.8818 37.842C45.8818 37.842 45.8728 37.8419 45.9056 37.8181C45.9218 37.7951 45.9379 37.7721 45.9541 37.7594C45.9541 37.7594 45.945 37.7593 45.9779 37.7355C45.994 37.7124 46.0101 37.6893 46.0262 37.6767C46.0262 37.6767 46.017 37.6766 46.0501 37.6529C46.0662 37.6297 46.0823 37.6066 46.0984 37.5941C46.0984 37.5941 46.0892 37.594 46.1223 37.5702C46.1383 37.5469 46.1544 37.5237 46.1705 37.5112C46.1705 37.5112 46.161 37.5111 46.1943 37.4874C46.2104 37.4641 46.2265 37.4408 46.2426 37.4284C46.2426 37.4284 46.233 37.4283 46.2664 37.405C46.2827 37.3819 46.2989 37.3588 46.3152 37.3462C46.3152 37.3462 46.306 37.346 46.3392 37.3226C46.3552 37.2994 46.3712 37.2762 46.3874 37.2635C46.3874 37.2635 46.3783 37.2636 46.4112 37.2396C46.4273 37.2166 46.4434 37.1936 46.46 37.1812C46.46 37.1812 46.4506 37.1816 46.4833 37.1548C46.4986 37.1298 46.5138 37.1048 46.5415 37.0376C46.5659 37.004 46.5902 36.9704 46.6415 36.9109C46.6563 36.8896 46.6674 36.866 46.6745 36.8475C46.6745 36.8475 46.6681 36.8466 46.7154 36.839C46.7495 36.7847 46.7836 36.7303 46.8189 36.6839C46.8189 36.6839 46.8119 36.685 46.8447 36.6612C46.8608 36.6382 46.8769 36.6152 46.8931 36.6025C46.8931 36.6025 46.884 36.6024 46.9168 36.5785C46.933 36.5555 46.9491 36.5325 46.9654 36.52C46.9654 36.52 46.9562 36.5201 46.989 36.4953C47.0047 36.4717 47.0205 36.4481 47.0434 36.3881C47.0559 36.3644 47.0742 36.3527 47.1323 36.3304C47.1489 36.3074 47.1655 36.2844 47.182 36.2721C47.182 36.2721 47.1727 36.2719 47.2058 36.2482C47.2219 36.2251 47.238 36.202 47.2543 36.1895C47.2543 36.1895 47.2451 36.1895 47.278 36.165C47.2938 36.1412 47.3095 36.1175 47.3322 36.0574C47.3446 36.0338 47.3628 36.0222 47.4211 36.0002C47.4377 35.977 47.4543 35.9539 47.4712 35.9415C47.4712 35.9415 47.4618 35.9419 47.4943 35.9167C47.5101 35.8932 47.526 35.8696 47.5583 35.7971C47.6698 35.6795 47.7814 35.5619 47.9268 35.4215C47.9434 35.3985 47.9601 35.3756 47.9767 35.3641C47.9767 35.3641 47.9667 35.3641 48.0022 35.3319C48.0167 35.2844 48.0312 35.2369 48.0472 35.1968C48.0472 35.1968 48.0407 35.1982 48.0734 35.1732C48.0888 35.1492 48.1043 35.1252 48.1267 35.0654C48.139 35.0421 48.157 35.0306 48.2152 35.0087C48.2321 34.9857 48.2489 34.9626 48.2656 34.9501C48.2656 34.9501 48.2564 34.9498 48.2895 34.9263C48.3056 34.9032 48.3217 34.88 48.3377 34.8673C48.3377 34.8673 48.3286 34.8672 48.3618 34.8438C48.3779 34.8206 48.3939 34.7974 48.41 34.7847C48.41 34.7847 48.4009 34.7846 48.4341 34.7612C48.4501 34.738 48.4661 34.7148 48.4825 34.7022C48.4825 34.7022 48.4733 34.7024 48.5064 34.6774C48.5219 34.6532 48.5375 34.6291 48.5546 34.5473C49.007 33.9295 49.47 33.3213 49.9099 32.692C51.1923 30.8576 52.2565 28.8733 53.0572 26.6558C53.0722 26.6081 53.0871 26.5604 53.1042 26.5222C53.1042 26.5222 53.0958 26.5243 53.133 26.4856C53.1468 26.4123 53.1607 26.339 53.176 26.2739C53.176 26.2739 53.1688 26.2753 53.2045 26.2431C53.2184 26.1952 53.2324 26.1472 53.2486 26.1093C53.2486 26.1093 53.2398 26.1115 53.2783 26.0689C53.2921 25.9696 53.3058 25.8703 53.3211 25.7783C53.3211 25.7783 53.3147 25.7797 53.3515 25.7409C53.3646 25.6677 53.3777 25.5945 53.3929 25.5309C53.3929 25.5309 53.3845 25.5331 53.4231 25.4903C53.4364 25.3905 53.4497 25.2908 53.4651 25.2005C53.4651 25.2005 53.4567 25.2026 53.4958 25.1569C53.5089 25.0304 53.5219 24.904 53.5373 24.7871C53.5373 24.7871 53.5289 24.7895 53.5682 24.7464C53.582 24.6452 53.5959 24.544 53.6111 24.4082C53.6111 24.4082 53.6222 24.376 53.6541 24.3257C53.6627 24.2012 53.6714 24.0766 53.6825 23.9613C53.6825 23.9613 53.6745 23.9638 53.7143 23.9139C53.7262 23.7051 53.738 23.4962 53.7539 23.2993C53.7539 23.2993 53.7434 23.3037 53.7838 23.2511C53.7986 22.6638 53.8197 22.0765 53.8237 21.4891C53.8246 21.3487 53.7687 21.2077 53.7519 21.0715C53.7519 21.0715 53.7475 21.0861 53.7532 21.0187C53.734 20.8705 53.7148 20.7224 53.6677 20.5144C53.6447 20.3579 53.6296 20.1993 53.5974 20.0454C53.3263 18.7503 52.9022 17.5196 52.2856 16.394C51.523 15.0021 50.5168 13.8937 49.2601 13.0601C48.2223 12.3717 47.1208 11.9473 45.9166 11.6407C45.2565 11.6291 44.5964 11.6167 43.9363 11.6098C43.9121 11.6096 43.8875 11.665 43.8156 11.7308C43.1997 11.8883 42.5523 11.9564 41.9747 12.2227C40.9153 12.7111 39.9189 13.3601 39.0808 14.2726C38.2551 15.1715 37.4504 16.0957 36.6222 16.9914C36.2795 17.3621 36.0017 17.7645 35.451 17.9089C34.7617 18.0896 34.222 17.984 33.7414 17.4639C32.775 16.418 31.8495 15.3223 30.8744 14.2873C30.0341 13.3954 29.0614 12.7223 27.9755 12.2836C27.4958 12.0898 27.0069 11.9256 26.4819 11.6998C26.3223 11.684 26.1628 11.6681 25.9739 11.6525C25.9739 11.6525 25.9473 11.6385 25.8974 11.6002C25.2876 11.6123 24.6778 11.6244 24.0088 11.6486C23.8288 11.7034 23.6449 11.7455 23.4693 11.815C22.6246 12.1496 21.7367 12.3916 20.9513 12.8583C20.12 13.3522 19.3737 14.0332 18.7134 14.8288C17.7995 15.9298 17.1437 17.199 16.7033 18.6144C16.5142 19.2221 16.4147 19.8662 16.235 20.5421C16.2225 20.7486 16.2101 20.9552 16.195 21.1518C16.195 21.1518 16.2037 21.149 16.1633 21.2015C16.1492 21.6785 16.1243 22.1555 16.1259 22.6324C16.1266 22.8561 16.1784 23.0797 16.196 23.2995C16.196 23.2995 16.1996 23.2871 16.1956 23.3601C16.2237 23.5596 16.2517 23.759 16.3292 23.9929C16.3344 24.1025 16.3273 24.2151 16.3467 24.3214C16.5974 25.7009 16.9881 27.0261 17.5732 28.2674C17.8867 28.9326 18.2369 29.5755 18.5784 30.2231C18.8862 30.8066 19.2047 31.3828 19.5265 32.0168C19.5742 32.0569 19.622 32.097 19.6644 32.1377C19.6644 32.1377 19.6651 32.1317 19.6687 32.1833C19.6943 32.2237 19.7198 32.2641 19.7772 32.3126C19.7979 32.3269 19.808 32.3478 19.8275 32.4141C19.8475 32.4332 19.8675 32.4522 19.8789 32.4706C19.8789 32.4706 19.8797 32.4608 19.8943 32.497C19.9044 32.5215 19.9194 32.5414 19.95 32.5893C19.95 32.5893 19.9519 32.6243 19.9721 32.6625C19.9921 32.6815 20.012 32.7004 20.0227 32.7189C20.0227 32.7189 20.0232 32.7083 20.0434 32.7465C20.0637 32.7648 20.084 32.7831 20.0952 32.8017C20.0952 32.8017 20.0951 32.7913 20.1159 32.8289C20.136 32.8474 20.1561 32.8658 20.1694 32.883C20.1694 32.883 20.1709 32.8752 20.1744 32.9274C20.201 32.9679 20.2276 33.0083 20.2416 33.0487C20.2416 33.0487 20.2419 33.0344 20.261 33.0741C20.281 33.0935 20.301 33.1129 20.3118 33.1322C20.3118 33.1322 20.3119 33.1217 20.3324 33.1597C20.3526 33.178 20.3728 33.1964 20.3862 33.2132C20.3862 33.2132 20.3879 33.2055 20.3907 33.2574C20.4168 33.2975 20.4429 33.3375 20.5005 33.3863C20.5203 33.4014 20.53 33.4225 20.5493 33.4889C20.5695 33.5076 20.5898 33.5264 20.6008 33.5455C20.6008 33.5455 20.6007 33.5349 20.6217 33.5722C20.6419 33.5907 20.662 33.6091 20.6732 33.6277C20.6732 33.6277 20.6731 33.6176 20.6944 33.6546C20.7143 33.6732 20.7342 33.6918 20.7457 33.71C20.7457 33.71 20.7463 33.7004 20.7636 33.7375C20.7809 33.7567 20.7983 33.776 20.8527 33.8309C21.1557 34.2515 21.4588 34.6721 21.7678 35.1488C21.8149 35.1915 21.862 35.2342 21.9022 35.278C21.9022 35.278 21.9015 35.2701 21.9225 35.3074C21.9425 35.3259 21.9625 35.3443 21.9736 35.3627C21.9736 35.3627 21.9738 35.3525 21.9943 35.3904C22.0145 35.4087 22.0347 35.427 22.0458 35.4454C22.0458 35.4454 22.0459 35.435 22.0665 35.4728C22.0867 35.4912 22.1069 35.5096 22.118 35.5281C22.118 35.5281 22.1181 35.5177 22.1386 35.5555C22.1588 35.5739 22.179 35.5922 22.1902 35.6107C22.1902 35.6107 22.1903 35.6003 22.2109 35.6382C22.2311 35.6565 22.2512 35.6749 22.2624 35.6934C22.2624 35.6934 22.2625 35.683 22.2831 35.7208C22.3033 35.7392 22.3235 35.7575 22.3345 35.7761C22.3345 35.7761 22.3345 35.7657 22.3559 35.8035C22.3767 35.8214 22.3974 35.8393 22.456 35.8714C22.4882 35.918 22.5204 35.9645 22.5726 36.0497C22.5926 36.0687 22.6127 36.0876 22.6235 36.1066C22.6235 36.1066 22.6236 36.096 22.645 36.1338C22.6657 36.1518 22.6865 36.1698 22.739 36.1962C22.7596 36.2105 22.7696 36.2315 22.7892 36.2975C22.8091 36.3165 22.829 36.3356 22.8401 36.3546C22.8401 36.3546 22.8403 36.3445 22.8611 36.382C22.8812 36.4003 22.9012 36.4187 22.9143 36.436C22.9143 36.436 22.9156 36.428 22.9224 36.4828C22.9708 36.5222 23.0193 36.5616 23.1058 36.6149C23.138 36.6618 23.1703 36.7086 23.2222 36.7932C23.2416 36.8122 23.2609 36.8312 23.2749 36.8493C23.2749 36.8493 23.2759 36.8432 23.281 36.8943C23.3064 36.9342 23.3319 36.9741 23.3892 37.0223C23.41 37.0367 23.42 37.0577 23.4265 37.1405C23.4747 37.1802 23.5228 37.2198 23.5638 37.2612C23.5638 37.2612 23.5627 37.2529 23.5829 37.2911C23.6032 37.3094 23.6235 37.3277 23.6347 37.3461C23.6347 37.3461 23.6348 37.3357 23.6552 37.3738C23.6755 37.3921 23.6958 37.4104 23.707 37.4287C23.707 37.4287 23.7071 37.4183 23.7274 37.4564C23.7478 37.4747 23.7681 37.4929 23.7793 37.5113C23.7793 37.5113 23.7793 37.5008 23.7997 37.539C23.82 37.5573 23.8403 37.5756 23.8514 37.594C23.8514 37.594 23.8515 37.5836 23.8719 37.6216C23.8922 37.6399 23.9125 37.6582 23.9237 37.6766C23.9237 37.6766 23.9238 37.6662 23.9441 37.7043C23.9645 37.7225 23.9848 37.7407 23.9979 37.7579C23.9979 37.7579 23.9993 37.7497 24.0057 37.8039C24.0534 37.8429 24.101 37.8819 24.1414 37.9223C24.1414 37.9223 24.1405 37.9141 24.1614 37.9516C24.1815 37.9701 24.2016 37.9886 24.2126 38.0071C24.2126 38.0071 24.2127 37.9967 24.2336 38.0342C24.2538 38.0527 24.2739 38.0712 24.2849 38.0898C24.2849 38.0898 24.2849 38.0793 24.306 38.1168C24.3263 38.1353 24.3465 38.1536 24.3573 38.1721C24.3573 38.1721 24.3575 38.1613 24.3782 38.1992C24.3983 38.2178 24.4185 38.2364 24.4294 38.255C24.4294 38.255 24.4294 38.2444 24.4503 38.2821C24.4705 38.3006 24.4906 38.3191 24.5013 38.3381C24.5013 38.3381 24.5009 38.3272 24.5248 38.3648C24.547 38.3824 24.5691 38.3999 24.641 38.4169C25.5085 39.312 26.3626 40.2249 27.2474 41.0971C28.1238 41.961 29.0201 42.8 29.9287 43.6193C30.5643 44.1923 31.2287 44.7246 31.8919 45.2561C32.9186 46.0791 33.9551 46.8859 34.9842 47.6969C35.1552 47.5664 35.2935 47.4637 35.4293 47.3566C35.9602 46.938 36.4919 46.5205 37.0204 46.0978C37.5407 45.6817 38.0596 45.2633 38.5751 44.8395C39.2987 44.2447 40.0185 43.6439 40.7745 43.0233C40.7914 43.0002 40.8083 42.9772 40.8252 42.9649C40.8252 42.9649 40.8158 42.9648 40.8491 42.9405C40.8647 42.9167 40.8804 42.8928 40.9037 42.8325C40.9163 42.8089 40.9348 42.7974 41.0112 42.7971C41.0686 42.7397 41.1261 42.6824 41.1846 42.6328C41.1846 42.6328 41.1778 42.6337 41.2107 42.6104C41.2263 42.5872 41.2419 42.5639 41.2657 42.5041C41.2783 42.4804 41.2968 42.4684 41.367 42.4634C41.4027 42.4334 41.4385 42.4033 41.4816 42.3373C41.4939 42.314 41.512 42.3023 41.5703 42.2803C41.5867 42.2571 41.6032 42.2338 41.6198 42.221C41.6198 42.221 41.6107 42.221 41.6437 42.1978C41.6599 42.1751 41.6761 42.1524 41.6906 42.1365C41.6906 42.1365 41.6848 42.1341 41.7365 42.1359C41.7929 42.0786 41.8493 42.0213 41.9067 41.972C41.9067 41.972 41.8997 41.9728 41.9326 41.9493C41.9486 41.9264 41.9647 41.9036 41.9808 41.8906C41.9808 41.8906 41.9722 41.8905 42.0048 41.8668C42.021 41.844 42.0371 41.8213 42.053 41.8079C42.053 41.8079 42.0448 41.8073 42.0773 41.7877C42.094 41.7677 42.1108 41.7477 42.1585 41.6854C42.9314 40.8705 43.7002 40.0504 44.4797 39.2439C44.711 39.0045 44.9723 38.803 45.2536 38.5611C45.2705 38.5384 45.2873 38.5156 45.3041 38.5032C45.3041 38.5032 45.2951 38.503 45.3277 38.479C45.3438 38.4559 45.3599 38.4329 45.376 38.4202C45.376 38.4202 45.3669 38.4201 45.3997 38.3962C45.4159 38.3732 45.4321 38.3502 45.4483 38.3377C45.4483 38.3377 45.4391 38.3375 45.4721 38.3137C45.4882 38.2907 45.5044 38.2676 45.5205 38.2551C45.5205 38.2551 45.5113 38.2549 45.5445 38.2313C45.5606 38.2082 45.5767 38.1851 45.5928 38.1724C45.5928 38.1724 45.5836 38.1723 45.6167 38.1488C45.6328 38.1256 45.6489 38.1025 45.6651 38.0898C45.6651 38.0898 45.6559 38.0898 45.689 38.0662C45.7051 38.043 45.7212 38.0199 45.7373 38.0072C45.7373 38.0072 45.7282 38.0071 45.7612 37.9835C45.7773 37.9604 45.7934 37.9373 45.8096 37.9246C45.8096 37.9246 45.8005 37.9246 45.8334 37.9008C45.8495 37.8777 45.8656 37.8547 45.8818 37.842Z" fill="#FFCA03"/>
<path d="M32.9632 37.6767C32.9632 37.6767 32.9521 37.6449 32.9523 37.5881C32.9525 35.9171 32.9548 34.3029 32.9491 32.6888C32.9485 32.5333 32.898 32.378 32.8707 32.2226C32.8707 32.2226 32.8829 32.2226 32.8604 32.2062C32.7204 32.1741 32.603 32.1452 32.4855 32.1449C31.0478 32.1424 29.6102 32.144 28.1725 32.1446C28.1725 32.1446 28.142 32.1437 28.107 32.1196C27.9868 32.0851 27.9016 32.0749 27.8164 32.0646C27.1062 31.7729 26.6558 31.0756 26.6724 30.2389C26.683 29.7074 26.6041 29.177 26.841 28.651C27.0595 28.1656 27.3666 27.8561 27.822 27.6482C27.9466 27.611 28.0303 27.5697 28.114 27.5283C28.114 27.5283 28.1426 27.5148 28.1926 27.5149C29.6836 27.5152 31.1246 27.508 32.5654 27.5217C32.8603 27.5246 32.9609 27.4218 32.9582 27.0772C32.9449 25.3741 32.9511 23.6709 32.9505 21.9678C33.1724 21.2272 33.5752 20.6964 34.3214 20.4919C34.8005 20.4909 35.2171 20.4896 35.6337 20.4883C35.6337 20.4883 35.6254 20.4915 35.6435 20.5076C35.7489 20.5393 35.8361 20.5549 35.9233 20.5705C35.9233 20.5705 35.9154 20.5727 35.9261 20.5866C35.9578 20.6183 35.9788 20.6362 35.9998 20.6542C36.5332 20.9022 36.8309 21.3817 36.9995 22.058C36.9984 23.7104 36.9963 25.2919 37.0005 26.8735C37.0009 27.0334 37.0388 27.1932 37.0593 27.353C37.0593 27.353 37.0704 27.3863 37.0933 27.4271C37.2335 27.4839 37.3507 27.5137 37.468 27.5139C38.9036 27.5163 40.3392 27.5144 41.7748 27.5136C42.3706 27.6207 42.7959 27.9925 43.0754 28.6502C43.0929 28.7223 43.1074 28.7423 43.1271 28.7575C43.1271 28.7575 43.1385 28.7892 43.1397 28.8318C43.1605 28.9185 43.18 28.9627 43.1995 29.0069C43.1995 29.0069 43.2107 29.0376 43.2097 29.094C43.2126 29.6908 43.2167 30.2312 43.2207 30.7716C43.1741 31.3215 42.4045 32.1667 41.7693 32.1452C40.3244 32.1444 38.943 32.1419 37.5617 32.1464C37.4219 32.1468 37.2822 32.1897 37.1425 32.2128C37.1425 32.2128 37.1123 32.226 37.0755 32.252C37.0252 32.4395 37 32.6012 36.9997 32.7628C36.9972 34.3784 36.9989 35.994 36.9993 37.6096C36.9993 37.6096 36.998 37.6457 36.9772 37.6843C36.9473 37.7956 36.9382 37.8682 36.9292 37.9409C36.6602 38.7031 36.1597 39.1646 35.4563 39.2334C34.8268 39.2949 34.1589 39.3628 33.6251 38.8377C33.3584 38.5754 33.0549 38.3144 33.011 37.8023C32.9908 37.7259 32.977 37.7013 32.9632 37.6767Z" fill="#FFC902"/>
</svg>
