<svg width="42" height="44" viewBox="0 0 42 44" fill="none" xmlns="http://www.w3.org/2000/svg">
<mask id="mask0_811_2689" style="mask-type:luminance" maskUnits="userSpaceOnUse" x="0" y="0" width="42" height="45">
<path d="M41.7836 0H0.488281V44.0057H41.7836V0Z" fill="white"/>
</mask>
<g mask="url(#mask0_811_2689)">
<mask id="mask1_811_2689" style="mask-type:alpha" maskUnits="userSpaceOnUse" x="6" y="7" width="32" height="29">
<path d="M22.1927 34.7666C16.2424 36.1938 11.0448 32.3264 8.96577 29.3327C6.65944 26.0116 6.66185 20.904 7.55129 17.6949C9.55141 10.4789 13.4387 9.22851 20.8735 8.28253C26.6023 7.55362 31.2139 7.16361 35.4202 12.3419C38.6183 16.279 36.1307 20.6063 35.2527 23.7742C33.2526 30.9902 29.4805 33.0187 22.1927 34.7666Z" fill="#FF7300"/>
</mask>
<g mask="url(#mask1_811_2689)">
<g opacity="0.99">
<path d="M34.7417 7.03586C42.6681 13.8983 43.5264 25.8995 36.6573 33.8181C29.7881 41.7368 17.7754 42.5943 9.84906 35.7318C1.92275 28.8693 1.0644 16.8682 7.93354 8.94952C14.8027 1.03088 26.8154 0.173371 34.7417 7.03586Z" fill="#D5D5D5"/>
</g>
</g>
<mask id="mask2_811_2689" style="mask-type:alpha" maskUnits="userSpaceOnUse" x="6" y="7" width="32" height="29">
<path d="M22.1508 8.19246C28.1272 6.87831 33.2504 10.8435 35.2722 13.8761C37.515 17.2403 37.4156 22.3469 36.4654 25.5386C34.3286 32.7154 30.4183 33.8919 22.9669 34.6968C17.2253 35.317 12.6071 35.6195 8.49989 30.3625C5.37716 26.3655 7.94639 22.0861 8.88441 18.9354C11.0212 11.7586 14.8311 9.80197 22.1508 8.19246Z" fill="#FF7300"/>
</mask>
<g mask="url(#mask2_811_2689)">
<mask id="mask3_811_2689" style="mask-type:luminance" maskUnits="userSpaceOnUse" x="-6" y="-5" width="33" height="33">
<path d="M0.995958 24.3697C-6.00902 19.2253 -7.51335 9.38172 -2.36394 2.38353C2.78547 -4.61466 12.6385 -6.11746 19.6435 -0.973035C26.6485 4.17139 28.1528 14.0148 23.0034 21.013C17.854 28.0112 8.00093 29.5141 0.995958 24.3697Z" fill="url(#paint0_radial_811_2689)"/>
</mask>
<g mask="url(#mask3_811_2689)">
<path d="M0.994981 24.3697C-6.00999 19.2253 -7.51432 9.38172 -2.36492 2.38353C2.78449 -4.61466 12.6376 -6.11746 19.6425 -0.973035C26.6475 4.17139 28.1518 14.0148 23.0024 21.013C17.853 28.0112 7.99995 29.5141 0.994981 24.3697Z" fill="url(#paint1_radial_811_2689)"/>
</g>
</g>
<path d="M26.1274 17.5874C25.7574 18.3164 24.9544 18.7385 24.1295 18.6373C23.3046 18.5361 22.6278 17.9325 22.4454 17.1356C22.4123 16.9912 22.2899 16.882 22.1408 16.8637C22.1004 16.8587 22.0597 16.8606 22.0197 16.8695C21.9267 16.89 21.8475 16.9455 21.7968 17.0254C21.7469 17.1043 21.7308 17.1975 21.7515 17.2881C21.9999 18.3739 22.9212 19.1959 24.0439 19.3336C25.1668 19.4713 26.2599 18.8964 26.7638 17.9029C26.8059 17.8201 26.8128 17.7258 26.7835 17.6372C26.7537 17.5473 26.6903 17.4745 26.605 17.4319C26.4297 17.3447 26.2154 17.4142 26.1274 17.5874Z" fill="#141313"/>
<path d="M19.6099 16.7873C19.2391 17.5212 18.436 17.9463 17.6112 17.8451C16.7866 17.744 16.1102 17.1374 15.9282 16.3357C15.8954 16.1909 15.7731 16.0815 15.6236 16.0631C15.5831 16.0582 15.5426 16.06 15.5032 16.0688C15.4101 16.0892 15.3309 16.1442 15.2801 16.224C15.23 16.3028 15.2137 16.3962 15.2343 16.487C15.4818 17.5781 16.4025 18.4037 17.5257 18.5415C18.6485 18.6792 19.742 18.1006 20.2466 17.1018C20.2889 17.0182 20.2957 16.9232 20.2657 16.8343C20.2354 16.7455 20.172 16.6732 20.087 16.6311C20.0017 16.5888 19.9053 16.5817 19.815 16.6114C19.725 16.6411 19.652 16.7035 19.6099 16.7873Z" fill="#141313"/>
<path d="M18.2432 21.7578C18.2432 21.7578 18.8961 21.1811 20.4576 20.9447C22.0853 20.6984 22.8613 21.1527 22.8613 21.1527" stroke="#141313" stroke-width="1.06333" stroke-linecap="round"/>
</g>
<defs>
<radialGradient id="paint0_radial_811_2689" cx="0" cy="0" r="1" gradientTransform="matrix(-12.6225 -4.52879 4.53318 -12.6103 10.6756 10.6077)" gradientUnits="userSpaceOnUse">
<stop offset="0.24" stop-color="white"/>
<stop offset="0.67" stop-color="white" stop-opacity="0.5"/>
<stop offset="1" stop-color="white" stop-opacity="0"/>
</radialGradient>
<radialGradient id="paint1_radial_811_2689" cx="0" cy="0" r="1" gradientTransform="matrix(-12.6225 -4.52879 4.53318 -12.6103 10.6746 10.6077)" gradientUnits="userSpaceOnUse">
<stop stop-color="#855EA7"/>
<stop offset="0.75" stop-color="#855EA7"/>
<stop offset="1" stop-color="#855EA7"/>
</radialGradient>
</defs>
</svg>
