<svg width="42" height="45" viewBox="0 0 42 45" fill="none" xmlns="http://www.w3.org/2000/svg">
<mask id="mask0_811_2622" style="mask-type:luminance" maskUnits="userSpaceOnUse" x="0" y="0" width="42" height="45">
<path d="M41.4194 0.855469H0.124023V44.8612H41.4194V0.855469Z" fill="white"/>
</mask>
<g mask="url(#mask0_811_2622)">
<mask id="mask1_811_2622" style="mask-type:alpha" maskUnits="userSpaceOnUse" x="6" y="8" width="31" height="28">
<path d="M21.7866 9.04793C27.7629 7.73377 32.8861 11.699 34.9079 14.7316C37.1508 18.0957 37.0514 23.2024 36.1012 26.394C33.9644 33.5709 30.054 34.7474 22.6026 35.5523C16.861 36.1725 12.2428 36.475 8.13563 31.2179C5.0129 27.2209 7.58213 22.9415 8.52016 19.7909C10.6569 12.614 14.4669 10.6574 21.7866 9.04793Z" fill="#FF7300"/>
</mask>
<g mask="url(#mask1_811_2622)">
<g opacity="0.99">
<path d="M8.71375 36.5379C0.919173 29.5265 0.288872 17.5112 7.30714 9.7242C14.3254 1.93717 26.3523 1.30748 34.1469 8.31895C41.9414 15.3304 42.5717 27.3457 35.5535 35.1327C28.5352 42.9197 16.5083 43.5494 8.71375 36.5379Z" fill="url(#paint0_linear_811_2622)"/>
</g>
</g>
<mask id="mask2_811_2622" style="mask-type:alpha" maskUnits="userSpaceOnUse" x="6" y="8" width="31" height="28">
<path d="M21.7866 9.04793C27.7629 7.73377 32.8861 11.699 34.9079 14.7316C37.1508 18.0957 37.0514 23.2024 36.1012 26.394C33.9644 33.5709 30.054 34.7474 22.6026 35.5523C16.861 36.1725 12.2428 36.475 8.13563 31.2179C5.0129 27.2209 7.58213 22.9415 8.52016 19.7909C10.6569 12.614 14.4669 10.6574 21.7866 9.04793Z" fill="#FF7300"/>
</mask>
<g mask="url(#mask2_811_2622)">
<g opacity="0.58">
<mask id="mask3_811_2622" style="mask-type:luminance" maskUnits="userSpaceOnUse" x="-7" y="18" width="43" height="43">
<path d="M2.25123 56.1616C-7.10886 49.2876 -9.11896 36.1346 -2.23829 26.7836C4.64238 17.4325 17.8081 15.4245 27.1682 22.2985C36.5283 29.1725 38.5383 42.3254 31.6577 51.6764C24.777 61.0275 11.6113 63.0357 2.25123 56.1616Z" fill="url(#paint1_radial_811_2622)"/>
</mask>
<g mask="url(#mask3_811_2622)">
<path d="M2.24977 56.1616C-7.11032 49.2876 -9.12042 36.1346 -2.23975 26.7836C4.64092 17.4325 17.8067 15.4245 27.1668 22.2985C36.5269 29.1725 38.5369 42.3254 31.6562 51.6764C24.7755 61.0275 11.6099 63.0357 2.24977 56.1616Z" fill="url(#paint2_radial_811_2622)" fill-opacity="0.31"/>
</g>
</g>
</g>
<mask id="mask4_811_2622" style="mask-type:alpha" maskUnits="userSpaceOnUse" x="6" y="8" width="31" height="28">
<path d="M21.7866 9.04793C27.7629 7.73377 32.8861 11.699 34.9079 14.7316C37.1508 18.0957 37.0514 23.2024 36.1012 26.394C33.9644 33.5709 30.054 34.7474 22.6026 35.5523C16.861 36.1725 12.2428 36.475 8.13563 31.2179C5.0129 27.2209 7.58213 22.9415 8.52016 19.7909C10.6569 12.614 14.4669 10.6574 21.7866 9.04793Z" fill="#FF7300"/>
</mask>
<g mask="url(#mask4_811_2622)">
<mask id="mask5_811_2622" style="mask-type:luminance" maskUnits="userSpaceOnUse" x="-6" y="-4" width="32" height="33">
<path d="M0.6317 25.2291C-6.37327 20.0847 -7.8776 10.2411 -2.7282 3.2429C2.42121 -3.75529 12.2743 -5.25808 19.2793 -0.11366C26.2842 5.03076 27.7885 14.8742 22.6391 21.8724C17.4897 28.8706 7.63667 30.3735 0.6317 25.2291Z" fill="url(#paint3_radial_811_2622)"/>
</mask>
<g mask="url(#mask5_811_2622)">
<path d="M0.630724 25.2291C-6.37425 20.0847 -7.87858 10.2411 -2.72918 3.2429C2.42023 -3.75529 12.2733 -5.25808 19.2783 -0.11366C26.2833 5.03076 27.7875 14.8742 22.6381 21.8724C17.4887 28.8706 7.6357 30.3735 0.630724 25.2291Z" fill="url(#paint4_radial_811_2622)"/>
</g>
</g>
<mask id="mask6_811_2622" style="mask-type:alpha" maskUnits="userSpaceOnUse" x="6" y="8" width="31" height="28">
<path d="M21.7866 9.04793C27.7629 7.73377 32.8861 11.699 34.9079 14.7316C37.1508 18.0957 37.0514 23.2024 36.1012 26.394C33.9644 33.5709 30.054 34.7474 22.6026 35.5523C16.861 36.1725 12.2428 36.475 8.13563 31.2179C5.0129 27.2209 7.58213 22.9415 8.52016 19.7909C10.6569 12.614 14.4669 10.6574 21.7866 9.04793Z" fill="#FF7300"/>
</mask>
<g mask="url(#mask6_811_2622)">
<g opacity="0.98">
<mask id="mask7_811_2622" style="mask-type:luminance" maskUnits="userSpaceOnUse" x="16" y="-6" width="28" height="28">
<path d="M21.9962 19.1552C15.9575 14.7203 14.6606 6.23451 19.0998 0.201584C23.5389 -5.83134 32.033 -7.12685 38.0717 -2.692C44.1105 1.74284 45.4073 10.2286 40.9681 16.2615C36.529 22.2944 28.035 23.59 21.9962 19.1552Z" fill="url(#paint5_radial_811_2622)"/>
</mask>
<g mask="url(#mask7_811_2622)">
<path d="M21.9962 19.1552C15.9575 14.7203 14.6606 6.23451 19.0998 0.201584C23.5389 -5.83134 32.033 -7.12685 38.0717 -2.692C44.1105 1.74284 45.4073 10.2286 40.9681 16.2615C36.529 22.2944 28.035 23.59 21.9962 19.1552Z" fill="url(#paint6_radial_811_2622)" fill-opacity="0.57"/>
</g>
</g>
</g>
<path d="M25.7632 18.4428C25.3931 19.1719 24.5902 19.5939 23.7652 19.4927C22.9403 19.3915 22.2635 18.788 22.0811 17.9911C22.0481 17.8467 21.9257 17.7374 21.7766 17.7191C21.7362 17.7142 21.6954 17.7161 21.6554 17.725C21.5624 17.7455 21.4832 17.8009 21.4326 17.8809C21.3826 17.9597 21.3665 18.0529 21.3873 18.1436C21.6357 19.2293 22.557 20.0514 23.6797 20.1891C24.8026 20.3268 25.8956 19.7519 26.3996 18.7584C26.4416 18.6756 26.4486 18.5812 26.4192 18.4927C26.3895 18.4027 26.3261 18.3299 26.2408 18.2873C26.0655 18.2002 25.8512 18.2697 25.7632 18.4428Z" fill="#141313"/>
<path d="M19.2461 17.6427C18.8754 18.3766 18.0722 18.8018 17.2475 18.7006C16.4228 18.5995 15.7465 17.9928 15.5645 17.1911C15.5317 17.0464 15.4093 16.937 15.2598 16.9186C15.2193 16.9136 15.1789 16.9155 15.1394 16.9242C15.0463 16.9447 14.9671 16.9997 14.9163 17.0795C14.8662 17.1583 14.85 17.2517 14.8705 17.3425C15.118 18.4335 16.0387 19.2592 17.1619 19.397C18.2848 19.5347 19.3782 18.9561 19.8829 17.9573C19.9251 17.8737 19.9319 17.7786 19.9019 17.6898C19.8716 17.6009 19.8082 17.5287 19.7232 17.4866C19.638 17.4443 19.5416 17.4372 19.4513 17.4669C19.3612 17.4965 19.2883 17.559 19.2461 17.6427Z" fill="#141313"/>
<path d="M17.8794 21.7266C17.8794 21.7266 18.5324 22.3033 20.0938 22.5396C21.7215 22.786 22.4976 22.3316 22.4976 22.3316" stroke="#141313" stroke-width="1.06333" stroke-linecap="round"/>
</g>
<defs>
<linearGradient id="paint0_linear_811_2622" x1="35.9647" y1="35.5324" x2="7.11558" y2="10.4845" gradientUnits="userSpaceOnUse">
<stop stop-color="#FF7300" stop-opacity="0.1"/>
<stop offset="0.269231" stop-color="#EDE7FF"/>
<stop offset="0.439929" stop-color="#E3D5FF"/>
<stop offset="0.548127" stop-color="#D9C3FF"/>
<stop offset="0.764523" stop-color="#C59EFF"/>
</linearGradient>
<radialGradient id="paint1_radial_811_2622" cx="0" cy="0" r="1" gradientTransform="matrix(-21.2216 -7.61406 7.62144 -21.2011 14.1251 39.1108)" gradientUnits="userSpaceOnUse">
<stop offset="0.49" stop-color="white"/>
<stop offset="0.72" stop-color="white" stop-opacity="0.5"/>
<stop offset="1" stop-color="white" stop-opacity="0"/>
</radialGradient>
<radialGradient id="paint2_radial_811_2622" cx="0" cy="0" r="1" gradientTransform="matrix(-21.2216 -7.61406 7.62144 -21.2011 14.1237 39.1108)" gradientUnits="userSpaceOnUse">
<stop offset="0.59" stop-color="#FFCB00"/>
<stop offset="0.9" stop-color="#FFCB00"/>
<stop offset="1" stop-color="#FFCB00"/>
</radialGradient>
<radialGradient id="paint3_radial_811_2622" cx="0" cy="0" r="1" gradientTransform="matrix(-12.6225 -4.52879 4.53318 -12.6103 10.3113 11.467)" gradientUnits="userSpaceOnUse">
<stop offset="0.24" stop-color="white"/>
<stop offset="0.67" stop-color="white" stop-opacity="0.5"/>
<stop offset="1" stop-color="white" stop-opacity="0"/>
</radialGradient>
<radialGradient id="paint4_radial_811_2622" cx="0" cy="0" r="1" gradientTransform="matrix(-12.6225 -4.52879 4.53318 -12.6103 10.3103 11.467)" gradientUnits="userSpaceOnUse">
<stop stop-color="#855EA7"/>
<stop offset="0.75" stop-color="#855EA7"/>
<stop offset="1" stop-color="#855EA7"/>
</radialGradient>
<radialGradient id="paint5_radial_811_2622" cx="0" cy="0" r="1" gradientTransform="matrix(-12.3451 -4.42927 4.43356 -12.3332 30.8383 6.80632)" gradientUnits="userSpaceOnUse">
<stop stop-color="white"/>
<stop offset="0.51" stop-color="white" stop-opacity="0.5"/>
<stop offset="1" stop-color="white" stop-opacity="0"/>
</radialGradient>
<radialGradient id="paint6_radial_811_2622" cx="0" cy="0" r="1" gradientTransform="matrix(-12.3451 -4.42927 4.43356 -12.3332 30.8383 6.80632)" gradientUnits="userSpaceOnUse">
<stop stop-color="#FF4200"/>
<stop offset="0.39" stop-color="#FF4200"/>
<stop offset="1" stop-color="#FF4200"/>
</radialGradient>
</defs>
</svg>
